<?xml version="1.0" standalone="no"?>
<!DOCTYPE svg PUBLIC "-//W3C//DTD SVG 1.1//EN" "http://www.w3.org/Graphics/SVG/1.1/DTD/svg11.dtd">
<svg xmlns="http://www.w3.org/2000/svg">
<metadata>Generated by Fontastic.me</metadata>
<defs>
<font id="untitled-font-1" horiz-adv-x="512">
<font-face font-family="untitled-font-1" units-per-em="512" ascent="480" descent="-32"/>
<missing-glyph horiz-adv-x="512" />

<glyph unicode="&#52;" d="M256 3c-139 0-252 113-252 252 0 139 113 251 252 251 139 0 251-113 251-252 0-138-113-251-251-251z m-120 236c31 0 62 0 94 0 0-34 0-67 0-101 15 0 30 0 45 0 0 34 0 67 0 101 31 0 62 0 93 0 0 14 0 28 0 42-31 0-62 0-93 0 0 33 0 66 0 99-15 0-30 0-46 0 0-33 0-66 0-99-31 0-62 0-93 0 0-14 0-28 0-42z"/>
<glyph unicode="&#97;" d="M201 350l0-178 100 89z"/>
<glyph unicode="&#98;" d="M424 249c0-46-16-85-49-118-33-33-72-49-118-49-46 0-85 16-118 49-33 33-49 72-49 118 0 46 16 85 49 118 33 33 72 49 118 49 46 0 85-16 118-49 33-33 49-72 49-118z m-261 42l32-11 4 10-32 12z m2-46l3-12 32 10-2 10z m31 93l20-28 9 6-19 28z m11-64l29-86 44 0 28 86c0 11-5 19-15 27-10 7-21 11-35 11-14 0-26-4-36-11-10-8-15-16-15-27z m29-107l44 0 0 15-44 0z m0-23l44 0 0 15-44 0z m16 177l11 0 0 33-11 0z m38-4l9-6 20 27-10 6z m25-74l32-10 3 12-33 8z m1 47l4-11 31 11-3 11z"/>
<glyph unicode="&#99;" d="M446 434l0-34-43-44-74 0-100-75-48 25-123-103 0 32 120 100 48-25 95 71 71 0z m-364-352l73 0 0 73-73 0z m97 0l73 0 0 121-73 0z m97 0l73 0 0 170-73 0z m97 0l73 0 0 218-73 0z"/>
<glyph unicode="&#100;" d="M440 137c-38 0-77 0-116 0 0-13 0-25 0-38 26 0 52 0 77 0 0-6 0-13 0-19-77 0-154 0-232 0 0 6 0 12 0 19 26 0 51 0 77 0 0 13 0 25 0 38-39 0-77 0-116 0 0 26 0 52 0 77 1 0 2 0 2 0 18-2 18-2 18-19 0-12 0-24 0-35 0 0 0-1 0-2 90 0 180 0 270 0 0 64 0 128 0 193-2 0-4 0-7 0-28 0-55 0-83 0-9 0-19 0-28 4-16 6-33 10-49 16 62 0 124 0 187 0 0-79 0-156 0-234z m-299 102c4-2 6-3 8-3 23-5 46-10 69-15 9-2 15-9 16-18 2-7-2-15-10-19-7-5-15-4-22 1-7 6-10 14-8 22 2 9 2 9-6 11-26 5-51 11-77 16-6 2-9 2-9-5 0-12-10-20-22-19-10 1-20 11-19 21 0 12 10 20 21 20 17-1 28 10 26 27-4 43-9 86-14 128-1 3-4 7-7 8-5 3-10 4-15 6-6 3-8 7-5 15 2 6 6 5 11 3 2-1 5-2 8-3 12-2 17-9 17-21 0-12 7-17 18-21 60-16 118-33 178-50 10-3 11-5 6-15-13-24-26-47-38-71-3-6-8-8-15-7-27 3-55 7-83 10-2 0-4 0-6-1-7-7-14-13-22-20z m6 123c0-4 0-7 0-10 1-3 3-6 6-7 5-2 11-3 17-4 2-1 6 0 6 1 1 7 2 14 2 21 0 1-2 2-4 3-5 2-10 3-15 5-12 4-12 4-12-9z m65-31c7-1 8 4 8 6 0 5 7 12 0 15-8 5-17 6-27 9 0 0-2 0-2 0-1-7-3-13-3-20 0-2 2-5 3-6 8-1 15-3 21-4z m-105 54c2-10 1-20 5-28 1-4 11-5 17-7 0 0 1 0 2 0 4-2 6 0 5 5 0 6 0 11 0 17 0 3-2 5-4 6-8 2-15 5-25 7z m68-66c0 4 2 9-4 11-6 1-12 3-17 4-5 1-7-1-6-5 0-4 0-8 0-12 0-10 0-10 10-11 18-3 16-6 17 13z m10-7c-2-12 2-12 11-13 2-1 4-1 6-2 5-1 9 1 10 6 4 17 6 16-11 20-15 4-15 4-16-11z m-48 10c0 4 0 8-1 12 0 2-2 4-4 4-4 2-9 3-13 4-5 1-7-1-6-5 1-5 2-10 2-15 0-7 3-10 9-11 13-2 13-2 13 11z m100 27c-1-1-4-3-4-5-2-4-2-8-3-13-1-3 1-5 4-5 5-2 11-3 16-4 2-1 7 0 7 1 3 5 4 11 6 17 0 0-1 1-2 1-7 2-15 5-24 8z m-8-33c-2-1-4-2-5-4-6-16-5-18 12-20 1 0 1 0 1 0 3 0 7 0 8 2 2 5 4 10 6 15 0 1-1 2-2 2-6 2-13 4-20 5z m-66-46c5-1 8 1 8 7 1 15 4 15-13 17-2 0-3 1-4 1-4 1-6-1-6-5 0-2 0-3 0-5 1-13 1-13 15-15z m-15-11c0 1 0 1 0 2-9 1-18 3-26 3-1 0-3-1-3-2-4-5-7-11-12-19 7 0 14-2 18 0 9 4 16 11 23 16z m-11 26c1 0 2 1 2 1-2 4-2 9-5 11-4 3-8 3-13 3-1 0-4-2-4-4 0-6 1-11 2-17 1-1 2-4 4-5 10-4 14-1 14 9 0 2 0 2 0 2z m59-19c6 0 9 5 10 15 1 5-4 8-17 8-11-1-5-10-6-15-2-6 0-7 13-8z m28-4c7 0 15 8 14 15-2 8-11 4-16 6-4 2-9-5-9-15 0-8 9-3 11-6z m57 51c5 2 13 11 13 16 0 4-8 7-15 7-4 0-12-12-10-15 2-4 7-5 12-8z m-16-26c5 0 15 10 14 15 0 1-2 3-3 3-11 5-14 3-18-8-3-9-3-10 7-10z m-52-96c5 0 11 5 11 9 0 5-5 10-9 11-6 0-11-4-11-9 0-5 5-10 9-11z m-121 38c0 5-4 10-9 10-5 0-10-5-10-9 0-5 5-11 9-11 5 0 10 5 10 10z m173 46c-11 5-15 4-19-7 0-2 0-7 0-8 4-1 9-3 12 2 2 4 4 9 7 13z"/>
<glyph unicode="&#101;" d="M246 137l-64 0c-6 0-8-2-6-7 3-13 0-23-11-30-9-8-20-9-32-4-14 7-20 18-17 32 4 16 15 25 32 25 4 0 8 1 12 5 12 13 16 28 10 45-3 8-19 56-48 145-6 16-10 28-13 36-2 4-5 6-10 7-12 2-21 4-27 4-7 2-11 5-11 12l0 7c1 7 4 11 11 10 21-4 32-5 33-5 4-1 7-3 9-7 4-8 8-18 13-30 1-5 5-8 10-8 17-1 43-3 78-5 34-2 60-4 78-6 62-4 109-7 140-9 9-1 13-6 9-15-4-14-10-35-18-63-8-27-14-47-18-62-2-5-6-9-13-9l-129-11c-5 0-10-3-13-8-2-3-5-8-10-14-4-5-7-9-8-10 0-1-1-4-2-6 1 0 2 0 3-1 1 0 2 0 3 0l108 0c12 0 20-5 26-14 5-6 7-13 6-20-1-7-5-14-11-19-5-5-12-8-20-7-8 0-15 3-20 8-9 8-12 18-9 29 2 5-1 8-7 8l-64 0z m-99 0c-4 0-7-1-11-4-3-3-4-6-4-10 0-3 1-7 4-10 4-3 7-5 11-5 3 0 7 2 9 5 4 2 5 6 5 10 0 4-2 7-5 10-2 2-5 4-9 4z m22 176l11 0c3-1 5 0 6 1 1 1 1 3 0 6-1 3-2 8-3 14-2 6-3 10-4 13 0 5-3 8-9 8-3 0-8 0-14 0-7 1-12 1-15 2-2 0-4 0-5-1-1-1-1-4 0-6 1-3 3-7 5-14 2-7 3-13 5-16 1-5 4-7 9-7z m5-16l-13 0c-4 0-6-2-4-7 3-9 6-19 11-30 1-4 4-6 8-6 3 1 10 1 19 1 4 0 6 3 5 7-1 5-3 13-4 21-1 2-1 3-2 5-2 4-3 7-4 8-1 0-6 1-12 0-1 1-3 1-4 1z m17-58c-1 0-2 0-3 0-2 0-3 0-5 0-1 0-2 0-3 0-4 0-6-2-4-7 1-3 2-7 4-13 2-5 3-9 4-11 2-4 5-6 8-6 7 1 13 2 15 2 5 0 6 3 5 7-1 2-1 5-2 8-1 3-1 5-1 7-2 7-4 11-5 12-1 1-6 2-13 1z m-1-86c7-2 13 1 18 5 1 1 8 10 24 26 0 1 1 2 1 3 0 1 0 1-1 1-1 2-3 2-4 2-14-1-25-2-32-4-5 0-7-2-8-7-2-7-4-12-5-16-3-5-4-8-4-9 0-1 4-1 11-1z m37 159l0 0 15 0c5 0 8 2 8 7-1 3-2 7-2 12-1 5-1 10-2 13 0 4-2 7-7 7-8 1-20 2-37 3-5 0-7-2-6-6 2-10 4-20 7-29 2-3 4-5 8-6 0 0 2 0 7 0l9 0z m4-16l0 0-15 0c-6 0-8-2-7-8 1-2 2-6 4-12 2-6 3-10 3-14 1-4 4-7 8-5 3 0 8 0 13 0 6 0 10 1 13 1 4 0 7 2 5 7 0 3-1 7-1 13-1 5-1 9-2 12 0 4-3 7-8 7l-13 0z m9-54l0-1-13 0c-4 0-6-2-5-7 1-4 3-12 6-24 1-3 3-4 7-4 3 0 6 0 11 0 5 1 8 1 10 2 4 0 6 2 5 7l-2 21c0 4-3 7-8 7l-11 0z m50 68l17 0c4 0 7 3 7 7 0 3 0 6 0 11 0 5 0 8 1 10 0 5-2 7-7 7-5 0-12 1-20 2-9 1-15 2-20 2-4 0-7-2-7-7 1-3 1-7 3-13 0-5 1-9 2-12 0-4 2-7 7-7 2 0 3 0 5 0 2 0 4 0 6 0 2 0 4 0 6 0z m0-16l0 1-15 0c-4 0-7-3-7-8 0-2 1-6 2-11 1-4 2-8 2-10 0-5 2-8 8-8 5 1 13 1 24 1 4 0 7 3 8 7 0 10 0 16 0 21 0 5-2 7-7 7z m3-50l0-1-13 0c-4 0-6-2-5-7 0-2 1-5 1-10 1-4 1-8 1-9 1-5 4-7 8-6 2 0 5 0 8 0 3 1 6 1 7 1 5 0 8 2 8 7 0 3 0 5 0 9 0 4 1 6 1 9 0 4-2 7-7 7z m33-15c-1-2-1-4-1-7 0-4 1-6 2-7 1-1 3-2 6-1 1 0 3 0 7 0 3 0 5 1 7 2 5 0 8 2 9 7 0 1 0 3 1 7 0 4 1 7 2 8 0 5-2 8-6 8-4-1-9-1-17-1-5 0-8 0-9-2-1-1-1-4-1-10z m22 65l0 0-13 0c-5 0-7-2-8-7l0-20c0-5 2-7 6-7 3 0 7 0 11 0 5 0 9 1 12 1 4 0 7 2 8 7 0 5 1 11 4 19 0 4-2 7-6 7z m2 16l0-1 15 0c4 0 7 3 7 6 3 8 4 15 4 19 1 4 0 7-5 7-4 0-9 1-17 2-7 1-13 1-17 1-4 0-7-2-7-7 0-2 0-6-1-10 0-5 0-8 0-10-1-4 1-7 6-7z m-14-197c4-3 7-5 11-5 3 0 7 2 10 5 3 3 5 7 5 10 0 4-2 7-5 10-3 3-7 4-10 4-4 0-7-1-11-4-3-3-5-6-5-10 0-3 2-7 5-10z m42 106c6 0 10 0 11 1 2 2 3 5 4 10 0 1 0 2 1 3 1 4 2 6 2 7 0 1 1 3 1 5 0 1-1 2-2 2-2 0-3 1-4 1-1 0-4 0-8 0-5-1-8-4-9-8-1-6-2-10-2-14-1-3-1-5 0-6 1-2 4-2 6-1z m6 43c1 0 2 0 4 0 1 0 2 1 3 1 1 0 2 0 4 0 1 0 2 0 3 1 4 1 6 2 7 5 1 2 2 5 3 10 1 4 2 7 3 8 1 3-1 6-6 6l-14 0c-5 0-7-2-8-6-1-5-2-11-3-19-1-4 1-6 4-6z m19 46l7 0c4 2 7 4 8 6 1 4 3 9 5 16 2 5 0 8-6 8-7 0-13 0-17 1-4 0-7-2-8-7 0-2-1-4-1-8-1-4-2-7-2-9-1-5 0-7 5-7l9 0z"/>
<glyph unicode="&#102;" d="M286 323l71 0-8-71-63 0 0-213-92 0 0 213-50 0 0 71 50 0 0 47c0 32 8 55 23 71 16 15 42 24 78 24l62 0 0-72-38 0c-14 0-23-2-27-6-4-4-6-12-6-22z"/>
<glyph unicode="&#103;" d="M221 170c-22-6-43-11-64-16-17-5-34-10-51-14-15-4-26 2-29 17-17 64-34 128-51 192-4 15 2 26 17 29 109 29 218 58 327 87 15 4 26-2 30-18 17-63 33-126 50-190 2-8 2-16-3-22 0-1 0-1 1-1 13-10 17-24 17-40-2-27-2-55 0-83 0-20-9-33-25-43-19-10-38-15-58-18-38-5-75-4-111 8-13 4-26 9-37 20-8 7-13 16-12 28 0 19 0 38 0 57-1 2-1 4-1 7z m122-5c0 0 0-1 0-1 18 3 37 5 55 8 13 3 25 7 34 16 14 10 14 23 0 34-6 4-14 9-22 11-44 14-87 14-131 1-10-2-19-8-27-14-12-9-12-21 0-31 5-4 10-7 15-10 25-11 50-13 76-14z m99 12c-4-7-10-13-18-16-5-3-10-5-15-7-39-13-78-13-117-5-19 5-38 10-49 30 0-8 0-15 0-22-1-8 2-15 9-20 9-5 19-11 29-14 38-11 76-11 114-2 14 3 26 7 38 16 5 4 9 10 9 17 0 8 0 16 0 23z m0-46c-5-10-9-14-19-19-5-2-10-5-14-6-40-12-80-13-120-4-17 5-36 10-46 30 0-9 0-15 0-22 0-9 3-16 10-21 9-5 19-10 29-14 40-11 80-11 120-1 11 3 22 8 31 15 5 4 9 9 9 16 0 8 0 16 0 26z m-164 235c35 10 69 19 104 28-4 13-7 26-11 39-35-9-69-18-103-27 4-14 7-27 10-40z m71-101c22 6 44 11 66 17-2 7-4 14-5 21-22-6-45-12-66-17 1-8 3-14 5-21z m-260-47c3-7 4-13 6-20 22 6 44 11 66 17-2 7-4 14-6 21-22-6-43-12-66-18z m90 2c14 4 27 7 40 10 6 2 13 3 20 6 2 0 6 3 5 5 0 5-3 11-4 17-23-6-44-12-66-17 2-8 3-14 5-21z m151 42c-2 5-3 12-5 18-22-6-44-12-66-17 2-5 3-10 4-13 22 4 44 8 67 12z"/>
<glyph unicode="&#104;" d="M54 211c0 61 0 123 0 186 3 0 4 0 6 0 82 0 164 0 247 0 17 0 26-9 26-27 0-63 0-126 0-189 0-1 0-3 0-4-2 0-4 0-5 0-46 0-90 0-136 0-3 0-4 1-6 4-8 23-30 39-55 39-25 0-47-15-55-39-1-3-3-5-6-4-5 0-10 0-14 0-10 0-17 5-18 14-1 9 4 16 14 19 1 0 1 0 2 1z m297-8c0 43 0 85 0 128 1 0 3 0 5 0 22 0 44 0 66 0 9 0 15-3 19-10 12-16 22-33 29-53 2-6 3-13 4-20 0-21 0-42 0-63 0-8-2-9-10-10-10-1-15 1-19 11-15 35-61 44-90 19-1 0-3-1-4-2z m22 73c26 0 52 0 79 0-7 14-14 27-24 38-1 2-3 3-5 3-16 0-32 0-47 0-1 0-2-1-3-1 0-13 0-26 0-40z m19-70c25 0 44-20 44-44 0-23-19-43-43-43-24 0-44 18-44 43 0 24 19 44 43 44z m21-43c0 11-9 20-21 20-11 0-20-9-20-20 0-11 9-20 20-20 12-1 21 8 21 20z m-238-1c0-24-19-43-43-43-25 0-44 20-44 44 0 23 20 43 44 43 24 0 43-20 43-44z m-43-20c11 0 20 9 20 21 0 11-9 20-20 20-12 0-20-9-20-20 0-12 8-21 20-21z"/>
<glyph unicode="&#105;" d="M244 227c10-8 17-14 22-18 5-5 10-12 15-23 5-9 8-20 8-31 0-27-13-50-37-70-25-19-59-29-102-29-37 0-65 7-85 23-20 15-31 33-31 54 0 26 15 48 43 64 20 13 49 21 84 23-5 10-8 18-8 26 0 5 1 8 1 10l-4 0c-28 0-50 9-66 26-17 16-24 35-24 56 0 28 12 52 35 71 25 19 56 29 94 29l133 0-60-33-12 0c15-17 23-37 23-57 0-13-3-25-8-35-6-10-11-18-16-23-5-4-12-10-22-16l0-1c-7-8-10-13-10-17 0-5 3-10 10-15z m-5-92c0 9-3 18-10 25-6 8-20 18-40 31 0 0-1 0-3 0-2 1-3 1-4 1-17 0-34-3-50-8-26-9-38-23-38-42 0-15 7-28 22-37 14-9 34-14 58-14 20 0 36 4 48 12 11 9 17 19 17 32z m-120 228c0-18 4-35 14-51 10-18 24-27 41-27 11 0 20 4 28 11 6 6 10 17 10 30 0 17-5 35-15 53-12 19-25 28-40 28-13 0-22-4-29-13-6-8-9-18-9-31z m284-2l78 0 0-34-78 0 0-81-34 0 0 81-80 0 0 34 80 0 0 78 34 0z"/>
<glyph unicode="&#106;" d="M94 341c-14 0-28-1-42 0-20 0-32 17-26 35 3 10 12 18 24 18 23 1 45 1 69 0 14 0 23-10 25-25 2-9 3-18 4-28 9 0 19 0 28 0-3-10-5-18-8-27-4 0-10 0-16 0 1-9 2-18 3-27 5 0 8 0 11 0 10 0 18 0 28-4 15-7 26-3 41 10 4-3 7-5 10-5 14-1 29 0 43 0 1 0 1 0 3 1 0 6 0 12 0 18 1 1 2 1 2 1 6-6 11-12 17-17 12-12 24-13 39-6 4 2 10 2 15 2 18 0 18 0 23 18 1 3 1 5 2 9-8 0-16 0-23 0-2 0-5 1-6 3-5 7-10 15-16 23 17 0 35 0 53 0 1 4 2 7 3 9 5 14 19 21 33 17 13-3 21-17 18-32-7-26-15-52-23-79-10-34-19-69-29-102-6-20-14-26-35-26-70 0-141 0-212 0-24 0-32 8-35 31-7 59-15 117-22 175 0 2-1 4-1 8z m225-107c15 0 29 0 43 0 2 0 4 1 5 3 3 7 4 15 6 23-19 0-37 0-54 0 0-9 0-17 0-26z m-29-53c0 9 0 17 0 25-17 0-35 0-52 0 0-9 0-17 0-25 18 0 35 0 52 0z m-52 79c0-9 0-17 0-26 18 0 35 0 52 0 0 9 0 18 0 26-17 0-34 0-52 0z m-80 0c1-9 2-17 3-26 17 0 33 0 49 0 0 9 0 17 0 26-17 0-34 0-52 0z m53-79c0 9 0 17 0 25-16 0-30 0-46 0 1-9 2-17 3-25 15 0 28 0 43 0z m107-1c11 0 20 0 30 0 1 0 3 2 4 3 3 7 4 15 7 23-13 0-25 0-36 0-2 0-4-2-4-3-2-7-1-15-1-23z m-80 209c-12 12-23 23-35 35-1 0-1 2-3 2-17-1-15 16-23 25 5 4 10 11 14 10 7-1 14-6 22-10 1 0 2-3 1-4-1-6 3-10 7-14 10-10 20-20 30-30 7 4 9 10 9 18-3 31 16 57 46 61 4 1 10 1 13-3 3-5-2-9-4-13-5-8-12-14-14-23-4-12 3-24 14-30 11-6 23-4 33 4 3 3 6 7 10 10 3 2 8 4 10 3 3-3 5-7 4-11-3-30-31-52-62-48-8 1-12-1-16-8 6-6 10-15 21-14 2 0 5 0 6-1 9-10 20-19 29-30 5-7 2-18-5-24-6-6-17-7-24-2-9 8-18 17-26 27-2 2-3 5-3 8 1 11-7 15-14 22-17-17-33-33-49-49-5-4-10-8-16-10-13-3-25 2-32 13-6 12-5 25 4 35 15 15 30 30 45 45 3 1 5 3 8 6z m-22-69c0 6-4 8-7 9-6 0-10-3-10-10 0-6 4-11 10-10 4 1 7 5 7 11z m155-260c0-22-18-40-40-40-22 0-40 18-40 40 0 22 18 40 40 40 22 0 40-18 40-40z m-200-40c-22 0-40 18-40 40 0 22 19 40 41 40 22-1 39-19 39-41 0-22-18-39-40-39z m110 315c1-6 3-13 5-20-10 0-19 0-26 0 6 5 13 12 21 20z"/>
<glyph unicode="&#107;" d="M340 417c14-8 25-21 33-38 9-17 13-37 13-59 0-12-6-31-17-57-12-26-25-52-38-75-14-24-29-51-46-81-18-30-28-48-32-55-3 6-13 25-31 55-18 30-33 57-46 81-14 23-26 49-38 75-12 26-18 45-18 57 0 22 4 42 13 59 9 17 20 30 34 38 14 8 29 14 43 18 14 4 29 6 43 6 15 0 29-2 44-6 15-4 29-10 43-18z m-87-140c12 0 22 4 30 12 9 8 13 19 13 31 0 11-4 21-13 30-8 8-18 12-30 12-12 0-21-4-30-12-8-8-12-19-12-30 0-12 4-22 12-31 8-8 18-12 30-12z"/>
<glyph unicode="&#108;" d="M182 247l-122-105c-1 4-2 7-2 10l0 194c0 3 1 6 2 9z m70-30l-172 153 2 0 339 0 4 0z m51 13l118-102-340 0 119 102 52-45z m143 116l0-194c0-3-1-6-3-11l-121 105 122 109c2-5 2-7 2-9z"/>
<glyph unicode="&#109;" d="M370 148c0 13 0 25 0 36 0 39 0 77 1 116 0 5-2 7-5 9-31 19-62 38-93 56-3 3-6 3-9 0-31-18-62-37-93-56-3-2-4-4-4-8 0-49 0-97 0-145 0-2 0-5 0-8-4 3-8 5-12 7-7 3-14 8-20 12-2 1-3 4-3 5 0 51 0 101 0 152 0 2 1 5 3 6 43 26 87 53 131 79 1 1 5 1 7 0 43-26 86-52 130-79 2-1 4-4 4-7 0-50 0-100 0-149 0-2-1-5-2-6-12-7-23-13-35-20z m-83 165c16-10 30-19 45-28 1 0 2-3 2-5 0-50 0-100 0-150 0-2-1-5-3-6-19-12-39-24-59-36-3-2-5-2-7 0-19 12-39 24-58 35-3 2-4 4-4 7 0 50 0 100 0 149 0 2 1 5 2 6 14 9 29 18 45 28 0-4 0-6 0-8 0-57 0-114 0-170 0-5 2-7 5-11 9-7 17-7 26 0 4 4 6 6 6 11 0 57 0 114 0 171 0 1 0 3 0 7z"/>
<glyph unicode="&#110;" d="M85 169c-13 8-26 15-39 23-1 0-1 3-1 5 0 28 0 56 0 84 0 29 0 58 0 87 0 3 1 5 4 7 49 29 98 59 146 88 4 3 6 3 10 0 49-29 97-59 146-88 4-3 5-4 5-8 0-16 0-32 0-48 0-2-1-5-2-7-3-5-3-10 0-16 1-1 2-3 2-4 0-20 0-40 0-60 0-1 0-1 0-3-5 3-7 5-6 12 2 26-7 46-30 60-3 2-4 5-4 8 0 12 0 23 0 35 0 3-1 4-3 6-37 21-72 43-108 65-3 2-6 2-9 0-36-22-72-43-107-65-3-1-4-3-4-7 0-56 0-112 0-168 0-2 0-4 0-6z m135 187c7-4 13-8 20-11 11-7 21-13 32-19 2-2 3-4 3-6 0-3 0-5 0-7 0-3-1-6-3-8-7-5-7-16-1-23 3-4 4-8 4-14-1-4 0-9 0-15-5 5-9 8-13 12-2 3-5 6-9 7-12 4-23-4-24-18-1-27 17-52 43-61 1 0 1 0 3-1 0-11 0-23 0-35 0-1-2-3-3-4-10-9-19-16-28-25-12-12-28-19-42-28-2 0-4 0-5 1-23 13-46 27-68 41-2 1-3 3-3 6 0 57 0 114 0 172 0 1 1 4 2 5 16 10 33 20 49 30 1 0 1 0 2 1 0-2 0-4 0-6 0-65 0-131 0-197 0-4 1-7 5-9 0 0 1 0 1-1 5-2 11-8 14-7 7 1 13 6 19 11 1 0 2 3 2 5 0 57 0 115 0 172 0 10 0 20 0 32z m110-170c-6 6-13 12-18 17-3 2-5 2-7 2-26-7-51 6-59 31-2 5-2 12-3 18 0 1 2 4 3 5 1 0 4-1 6-2 6-6 13-13 19-19 2-2 4-4 8-2 6 2 11 3 17 4 2 1 4 3 4 4 2 6 3 11 5 17 1 3 0 5-3 7-6 6-13 13-19 19-1 2-2 5-2 6 1 1 4 2 6 2 32 2 57-28 49-59-1-5 0-8 4-11 7-6 12-12 18-17 7 6 14 13 20 19 7 7 14 14 20 21 4 3 7 5 5 11-1 1 0 3 1 5 5 8 5 15-2 22-6 8-16 11-25 14-4 1-7 1-11 2 0 1 0 1 0 2 5 1 9 2 13 3 10 0 20-2 29-7 18-10 35-22 46-41 2-4 2-8 4-12 1-3 3-6 4-9 1 0 2 0 2 0 5 5 8 5 11 2 4-3 3-7-2-11-4-4-8-9-12-12-4-5-8-5-11-3-3 3-3 7 2 13-5 3-10 6-15 9-2 1-4 1-5 1-5 0-9 0-13 0 0 1-1 1-1 2-14-15-29-30-45-46 9-8 17-15 25-23 17-15 34-31 50-47 3-2 5-4 6-7 7-8 7-18 0-25-6-8-17-10-26-5-3 1-7 4-9 7-21 21-42 43-63 65-1 1-2 3-4 4-9-10-17-20-26-29-13-15-26-30-40-45-6-7-15-7-22-1-3 3-6 6-9 8-7 8-7 16 1 24 23 20 46 41 69 61 1 2 2 4 5 6z m115-80c0 4-5 8-10 8-4 0-8-4-8-9 0-5 4-9 9-9 5 0 9 5 9 10z"/>
<glyph unicode="&#111;" d="M202 158c-76-12-156 36-174 119-18 84 35 167 118 185 90 19 161-41 180-102-6-3-11-6-17-10-2 6-3 11-6 16-1 2-3 3-4 3-13 0-26 0-39 0 1-10 3-20 5-29 2-16 2-16-11-23-7-4-13-8-20-12-4-3-9-4-14-4-10 0-20 0-31 0 0-16 0-32 0-48 4 0 9 0 13 0 0-7 0-13 0-20-4 0-9 0-13 0 0-19 0-36 0-56 5 4 9 7 13 11 0-10 0-20 0-30z m-33 163c0 16 0 32 0 48-15 0-31 0-46 0-2 0-4-3-4-4-2-9-4-18-5-28-1-5-1-11-2-17 20 1 38 1 57 1z m77 0c0 15-2 30-7 45 0 1-3 3-5 3-12 0-24 0-37 0-2 0-5 0-8 0 0-17 0-33 0-48 20 0 38 0 57 0z m-77-20c-19 0-38 0-57 0 0-16 2-32 7-46 1-1 3-2 4-2 12 0 23 0 34 0 4 0 8 0 12 0 0 16 0 32 0 48z m-70 68c-13 0-26 0-40 0-1 0-2-1-3-3-6-14-10-29-12-45 16 0 32 0 48 0 2 15 4 31 7 48z m0-116c-3 16-5 32-7 48-16 0-32 0-48 0 1-16 5-32 12-46 0-1 2-2 3-2 14-1 27 0 40 0z m70 191c-19-15-33-33-42-55 14 0 28 0 42 0 0 18 0 36 0 55z m20-55c14 0 28 0 43 0-10 22-23 40-43 55 0-18 0-34 0-51 0-1 0-3 0-4z m-20-156c-14 0-28 0-42 0 7-20 31-51 42-54 0 18 0 35 0 54z m-34 206c-28-11-49-27-67-50 13 0 25 0 36 0 1 0 3 2 3 3 5 9 9 18 14 26 3 7 8 13 14 21z m155-51c-17 24-39 40-65 49 11-14 20-30 27-46 0-1 2-3 3-3 11 0 23 0 35 0z m-156-204c-1 2-2 3-4 5-6 10-14 20-18 30-4 12-11 16-23 14-6-1-13 0-21 0 18-24 39-40 66-49z m115-79c-12 7-23 12-33 19-1 0-2 3-2 4 0 49 0 98 0 147 0 1 2 4 3 5 43 26 85 52 127 77 2 1 5 1 6 0 42-25 85-51 127-77 2-1 3-4 3-5 0-49 0-98 0-147 0-1 0-4-1-4-11-7-21-12-33-19 0 3 0 5 0 8 0 46 0 93 1 139 0 5-1 7-5 9-30 18-60 36-90 54-3 2-5 2-9 0-29-18-60-36-90-55-3-2-4-4-4-8 0-47 0-94 0-140 0-2 0-4 0-7z m80 160c0-4 0-6 0-8 0-55 0-110 0-165 0-5 2-7 5-10 9-7 17-7 25 0 4 3 5 5 5 10 0 55 0 111 0 166 0 2 0 4 0 7 16-10 31-18 45-27 1-1 1-3 1-5 0-49 0-97 0-146 0-2-1-5-3-6-19-11-38-23-58-35-1-1-4-1-6 0-19 12-38 24-57 35-1 1-3 4-3 6 0 49 0 97 0 146 0 1 0 4 2 5 15 9 29 17 44 27z"/>
<glyph unicode="&#112;" d="M498 403c0-1 0-2 0-3-2-2-4-5-6-7-12-11-24-23-36-35 2-1 2-2 2-2 14-29 23-59 25-91 2-23 0-46-4-68-16-64-52-113-110-147-24-14-49-23-77-26-7-1-13-2-20-3-8 0-17 0-25 0-1 1-2 1-4 1-10 2-20 2-30 4-39 8-73 26-103 53-44 40-68 89-74 148-2 21-2 44 3 66 12 56 40 102 85 137 46 36 98 50 156 45 24-2 46-7 68-17 9-4 17-9 27-13 4 5 9 10 14 15 9 8 17 16 25 25 2 0 2 0 3 0 1-3 3-4 3-6 4-16 8-32 12-48 1-3 0-5-2-7-21-19-41-38-61-57-1-1-3-2-5-3-3 13-6 25-8 37-1 2-2 5-5 6-39 23-81 31-125 22-42-8-76-28-104-60-40-48-54-104-38-164 19-74 67-120 143-136 24-5 47-4 71 1 49 11 87 38 114 80 23 36 32 76 27 119-2 24-9 46-20 67-2 3-3 5-7 5-8 2-17 3-26 7-9 3-14 0-20-6-5-7-6-6-1-13 24-32 31-68 24-107-6-32-23-59-49-79-32-25-69-34-109-25-31 7-55 23-75 48-23 30-32 65-27 103 5 31 19 57 42 78 21 20 47 32 77 35 27 2 54-3 78-18 8-5 15-10 23-16-12-12-23-22-34-32-22 17-46 24-72 18-27-5-47-20-59-45-22-41-8-92 34-117 39-22 88-11 114 28 24 36 16 81-6 103-10-9-19-17-28-27 15-23 10-50-11-66-17-13-44-11-60 6-16 17-17 45-2 63 16 17 42 21 61 8-3-1-4-3-6-5-9-7-18-15-27-23-4-4-4-7 0-12 66 62 132 124 199 185 0 0 1 0 1 0 0-3 1-6 0-8-1-3-4-5-6-7 13-4 26-6 38-10 4-1 9-3 13-4z"/>
<glyph unicode="&#113;" d="M407 443c4-4 7-10 7-17l0-340c0-7-2-13-7-17-5-4-10-7-17-7l-243 0c-7 0-13 2-17 7-4 5-7 10-7 17l0 340c0 7 2 13 7 17 5 4 10 7 17 7l243 0c7 0 12-2 17-7z m-42-41l-194 0 0-243 194 0z"/>
<glyph unicode="&#114;" d="M361 240c-26 0-54-23-53-66-29-4-59-3-89 0 0 7-1 13-2 19-5 21-15 37-36 45-4 1-9 1-14 2 3 5 8 9 13 12 13 6 26 12 39 18 6 3 11 5 17 9-6 7-9 14-12 22-1 3-3 5-5 7-6 9-9 19-8 30 0 3 0 5 4 6 0 0 1 1 1 3 0 5 0 11 0 18 1 23 13 40 37 43 13 2 25 1 36-5 13-6 20-18 21-32 2-8 0-17 0-27 5 0 6-3 6-6 1-10-1-19-7-28-4-5-7-11-10-17-2-5-5-10-8-14 13-6 26-12 39-19 8-3 17-8 24-12 3-3 4-5 7-8z m-213-106c-21 19-24 50-12 72 6 11 14 19 25 21 14 4 25-2 34-12 18-22 17-61-5-80 0 0 0 0-1-1 6-4 13-7 19-10 4-2 8-4 12-5 17-6 24-18 28-34 2-3 2-6 3-10 1-6-1-9-7-11-5-1-10-3-15-3-23-4-46-5-69-5-21 1-42 3-62 7-12 3-12 4-11 15 2 9 5 18 10 25 3 5 7 9 12 11 10 5 19 8 28 13 4 2 7 5 11 7z m190 0c-7 6-12 14-15 23-6 20-4 39 8 56 15 20 41 20 57-1 16-22 15-58-9-79 9-4 16-8 24-12 3-1 6-3 10-4 14-5 21-16 25-29 2-4 3-10 3-15 1-6 0-7-6-9-5-1-11-3-16-4-22-3-44-5-66-4-23 0-45 2-67 7-9 2-10 4-8 13 1 9 4 18 9 26 3 5 7 10 13 12 12 5 22 10 33 16 2 2 3 3 5 4z m41 221c8-4 16-8 23-11 3-2 7-3 10-4 15-5 22-17 27-32 1-4 2-8 2-13 1-6 0-7-6-9-5-1-11-3-16-4-23-3-47-5-70-4-13 0-25 2-37 3-2 0-3 1-5 1 3 8 7 15 11 21 10 16 12 28 7 45 4 2 9 4 13 7-3 3-5 7-8 10-14 20-13 52 3 71 15 19 42 18 56-4 15-22 13-59-8-76-1 0-1 0-2-1z m-189 0c5-3 9-5 13-7-6-15-3-28 4-41 5-8 10-17 15-25-4-1-6-2-9-2-21-2-43-3-64-2-17 1-34 3-51 7-12 2-12 3-11 15 2 10 5 20 12 28 2 3 6 6 9 8 11 5 21 9 32 15 3 1 6 3 8 4-9 8-14 18-17 29-4 21-1 40 13 55 15 16 37 14 51-2 18-22 17-62-5-81 0 0 0 0 0-1z"/>
<glyph unicode="&#115;" d="M339 112c0 11 0 21 0 32 3 0 4 0 6 0 25 0 49-1 73 0 28 0 51 20 58 47 7 27-3 55-27 69-6 4-12 6-19 9 4 34-4 65-27 92-18 19-40 31-66 35-52 8-105-21-124-77-22 16-46 21-71 10-26-11-40-31-44-57-5-1-10-1-14-3-31-7-52-35-50-66 3-33 29-57 61-59 24 0 48 0 72 0 2 0 4 0 7 0 0-10 0-21 0-31-3 0-4 0-6 0-24 0-47 0-70 0-53 0-94 39-96 91-2 41 25 80 65 93 4 2 6 4 8 8 20 45 69 70 117 59 5-1 7-1 11 4 33 48 92 71 149 58 57-13 101-59 110-117 0-5 1-10 1-15 0-3 2-5 4-6 34-22 50-62 42-100-8-39-40-69-80-75-5 0-10-1-14-1-23 0-46 0-70 0-2 0-4 0-6 0z m-23 71c0-33-27-60-59-60-33 0-60 27-60 60 0 33 27 60 60 60 32 0 59-27 59-60z m-33 20c-3 1-7 2-10 3-7 2-13-1-15-8-1-2-1-3-1-6-8 1-8 1-25 12-2-6-1-11 3-15-2 0-3 0-5 0 4-6 8-6 10-10 0 0-6-2-6-2 2-5 5-6 11-9-5-1-10-3-15-4 1-1 1-1 2-1 22-10 44 2 48 27 1 4 2 7 5 10 0 0 0 0 1 1-1 0-6-1-8-1 2 0 5 3 5 3z m-65 50c0-28-23-51-51-51-28 0-52 23-52 51 0 28 24 51 52 51 28 0 51-23 51-51z m-79 7c0-8 0-17 0-25 0-6 4-10 11-10 12 0 23 0 35 0 5 0 10 4 10 8 1 10 0 18 0 27-3 0-5 0-7 0-3 0-5 0-7 0 2-9 1-15-5-20-6-3-11-4-16 0-9 5-10 12-6 20-5 0-10 0-15 0z m11 22c0-4 0-10 0-14-3 0-4 0-6 0 0 3 0 10-1 13-2 1-3 0-4 0 0-4 0-12 0-17 8 1 15-2 22 2 3 2 9 2 13 0 7-4 14-2 21-2 2 13-2 17-14 17-4 0-7 0-11 0-5 0-10 0-16 0 0-5 0-8 0-14 0 1-1 0-2 1-1 4-1 11-1 14 0 0-1-1-1 0z m17-18c-6 0-11-5-11-11 0-6 5-12 11-11 6 0 11 5 11 11 0 6-5 11-11 11z m211-94c-26 0-47 21-47 47 0 26 21 47 47 47 26 0 47-21 47-47 0-26-21-47-47-47z m-5 74c3 0 4 1 6 2-6 0-14 2-20 1-7-1-12-9-12-16 0-7 5-11 14-12 0 0 1-1 1-1 0-2 1-5 1-7-5-1-11-1-15-4-8-4-6-16 2-19 5-2 12-3 18-2 6 0 11 5 13 12 2 6-3 11-7 14-1 1-1 1-1 1-4 3-3 4 0 7 7 9 7 14 0 24z m13-13c0-1 0-5 0-5 5 0 10 1 14 0 0-5 0-9 0-14 2 0 5 0 5 0 0 0 0 9 0 14 3 0 11 1 13 1 1 0 1-1 1 4-5 0-9 0-14 0 0 3 0 11 0 14 0 0 0 0-5 0 0-5 0-9 0-14-5 0-9 0-14 0z m-42 79c0-22-17-39-39-39-22 0-39 17-40 38 0 22 18 40 40 40 22 0 38-17 39-39z m-46-25c4 0 7 0 10 0 0 8 0 16 0 24 3 1 5 0 7 0 0 3 1 7 1 10-3 0-5 0-7 0-2 7 1 7 7 7 0 3 0 5 0 8-13 2-20-1-17-15-3 0-4 0-6 0 0-3 1-7 1-10 1 0 2 1 5 0-1-8-1-15-1-24z m-131-21c6 0 11-5 11-11 0-6-5-11-11-11-6 0-11 5-11 11 0 6 6 11 11 11z m1-20c4 0 8 4 8 9 0 5-4 9-9 9-5 0-9-4-9-9 0-5 5-9 10-9z m23 28c0-5-1-5-6-6-4 0-5 2-5 6 0 4 2 6 5 6 5 0 6-2 6-6z m-23-28c-5 0-9 4-10 9 0 5 4 8 9 9 5 0 9-4 9-9 0-5-4-9-8-9z m195-55c-5 0-10 1-12 7-1 2-1 6 0 8 4 5 10 5 15 5 4 0 10-7 10-12-1-5-6-8-13-8z m8 41c0-5-3-9-8-8-5 0-10 7-9 14 0 5 3 9 7 8 5 0 10-7 10-14z"/>
<glyph unicode="&#116;" d="M151 274c0 39 0 76 0 115 95 0 190 0 285 0 0-72 0-143 0-214-36 0-71 0-106 0 0-12 0-24 0-35 24 0 47 0 70 0 0-6 0-12 0-18-64 0-129 0-194 0 0-8 0-16 0-23 0-11-3-15-15-15-37 0-76 0-113 0-10 0-14 4-14 14 0 53 0 108 0 162 0 10 3 14 14 14 24 0 48 0 73 0z m267-81c0 59 0 119 0 178-83 0-166 0-249 0 0-33 0-65 0-97 1 0 1 0 1 0 7 0 14 0 21 0 12 0 15-4 15-15 0-20 0-40 0-61 0-1 0-3 0-5 71 0 142 0 212 0z m-330 57c0-40 0-79 0-118 32 0 63 0 94 0 0 39 0 78 0 118-31 0-62 0-94 0z m118-110c18 0 34 0 52 0 0 11 0 23 0 35-18 0-34 0-52 0 0-12 0-24 0-35z"/>
<glyph unicode="&#117;" d="M336 213c-54-32-107-8-126 16 17 2 17 2 19 22 19-20 42-27 69-21 16 3 30 13 40 27 20 28 16 67-9 92-23 21-68 29-102-7-1 6-1 12-4 16-3 4-10 4-14 6 19 27 72 48 122 21 47-26 71-96 29-151 14 2 22-7 30-16 28-32 56-63 84-95 8-9 10-20 5-31-5-10-16-17-26-15-8 0-14 3-19 8-30 35-61 69-91 103-7 7-8 15-7 25z m-106 82c-1 40 32 66 70 55 20-6 34-24 35-48 1-8 0-15-1-22-7-28-29-44-59-41-25 3-44 23-45 51 0 2 0 3 0 5z m71 26c-9 16-30 15-39 0-9-16-10-34-1-50 10-17 33-17 41 1 8 10 8 37-1 49z m-88-13c0-7 0-14 0-20-14 0-27 0-40 0 0-9 0-17 0-27 15 0 30 0 45 0 0-7 0-13 0-20-23 0-47 0-70 0 0 19 0 37 0 55 0 18 0 37 0 55 22 0 44 0 68 0 0-7 0-13 0-20-14 0-28 0-43 0 0-8 0-15 0-23 13 0 26 0 40 0z m-86 39c-3-7-4-14-6-19-7 1-14 3-21 3-4 1-8 0-11-1-3-2-6-5-7-8 0-3 3-7 5-9 4-3 9-5 14-7 5-3 11-4 15-7 21-13 20-42-2-54-18-9-37-8-56-1-1 1-2 3-2 4 1 6 2 11 4 17 8-2 17-5 25-5 4-1 10 0 14 2 8 3 9 12 2 18-3 2-8 4-13 6-6 3-13 6-18 9-18 13-17 39 2 50 17 11 36 9 55 2z"/>
<glyph unicode="&#118;" d="M225 203c0-11 0-22 0-32 0-9 2-10 10-10 8 0 17 0 25 0 7 0 15-8 14-15-1-4-4-4-7-4-10 0-21 0-31 0-10 0-11-1-11-11 1-13 1-27 0-41 0-8 3-11 11-9 5 1 10 3 14 6 11 11 21 22 32 33 3 3 5 6 9 3 5-4 7-8 3-12-2-4-6-7-9-11-1-1-1-3-1-5 2 0 4-1 6 0 4 3 8 6 13 8 3 1 8 1 11 0 9-3 17-7 25-11 2-1 4-3 5-5 0-1-2-4-4-5-30-20-63-34-100-38-59-6-112 9-158 46-42 34-67 77-76 130-9 57 2 110 36 157 48 66 114 97 194 89 91-10 152-61 183-147 3-6 4-12 6-19 0-2 0-4-1-5-1-1-4-1-6-1-9 3-19 6-28 10-3 1-6 5-7 9-5 9-9 19-13 28-3 6-8 9-14 8-6 0-12 0-18 0-6 0-8-2-6-8 4-11 8-22 11-33 1-5-2-9-9-10-6-2-7 2-8 6-3 12-7 24-11 36-3 8-5 9-14 9-22 0-44 0-65 0-9 0-11-1-11-10 0-22 0-43 0-65 0-8 2-10 10-10 14 0 28 0 41 0 3 0 6-1 7-2 0-2-1-5-2-7-4-8-10-10-18-9-10 0-19 0-29 0-7 0-9-3-9-10 0-11 0-22 0-33 0 0 0 0 0 0z m-71 61c14 0 29 0 43 0 8 0 10 2 10 10 0 22 0 43 0 65 0 8-1 10-10 10-22 0-43 0-65 0-10 0-12-1-15-9-8-22-13-44-15-67-1-7 1-9 9-9 14 0 28 0 43 0z m1-18c-15 0-30 0-45 0-6 0-9-2-8-8 3-24 9-48 20-70 2-5 6-7 11-7 22 0 43 0 64 0 8 0 10 2 10 10 0 21 0 43 0 66 0 7-2 9-9 9-15 0-29 0-43 0z m-92 0c0 0 0 0 0 0-2 0-4 0-6 0-18 0-18 0-15-18 3-20 10-40 20-58 3-5 6-9 12-9 8 0 16 0 24 0 6 0 8 2 5 8-9 22-16 45-17 69-1 5-4 8-9 8-5 0-10 0-14 0z m-1 18c5 0 10 0 14 0 6 0 9 3 9 8 1 24 6 48 16 70 2 4 0 7-5 7-6 0-13 0-19 0-7 1-12-2-15-8-3-7-7-14-9-21-5-16-9-32-12-48-2-5 1-8 7-8 5 0 9 0 14 0z m107 103c0 0 0 1 0 0 10 1 20 1 30 1 4 0 8 1 8 6 0 17 0 33 0 49 0 2-4 6-6 6-11 0-23 0-31-10-11-14-24-29-35-44-4-4-2-7 4-7 10-1 20-1 30-1z m94 1c0 0 0-1 0 0 10-1 20-1 30 0 2 0 4 1 5 2 1 1 0 4-1 6-7 9-13 19-21 28-10 13-20 25-39 25-10 0-12 0-12-10 0-14 0-28 0-42 0-7 2-9 9-10 10 1 19 1 29 1z m-91-226c0 0 0 0 0 0-9 0-19 0-28 0-2 0-4-1-5-2-1-2 0-5 1-6 12-17 26-34 42-47 5-4 10-6 15-7 8-1 10 1 10 9 0 15 0 29 0 44 0 7-2 9-9 9-8 0-17 0-26 0z m-23-48c0 0 1 1 1 1-1 2-2 4-3 5-9 12-18 23-26 35-4 5-8 8-14 7-5 0-10 1-15 0-3 0-5-1-7-2 1-2 1-4 3-6 16-16 34-29 55-39 2-1 4-1 6-1z m-10 316c0 1-1 2-1 2-4-1-7-3-10-5-13-10-27-20-40-31-2-1-2-4-3-6 2-1 4-2 6-2 4-1 8 0 12 0 6-1 10 2 14 8 6 10 13 19 20 29 1 2 2 3 2 5z m155 2c0-1-1-1-1-2 1-2 1-3 3-5 5-7 10-14 15-21 12-20 8-16 30-16 2 0 4 1 6 2-1 2-1 4-3 6-14 11-29 22-43 33-2 2-5 2-7 3z m91-128c72 1 117-75 83-138-3-5-3-8 1-12 13-13 26-26 39-39 4-4 4-14 0-18-12-13-20-13-33-1-10 10-21 21-31 32-5 4-8 4-13 2-53-29-118-2-135 54-13 44 9 93 51 112 12 5 25 8 38 8z m1-30c-35 0-64-29-64-63 0-34 29-63 63-63 36 0 64 28 64 63 0 34-28 63-63 63z"/>
<glyph unicode="&#119;" d="M312 49c-3 0-5 0-6 0-66 0-131 0-196 0-14 0-19 6-19 19 0 62 0 123 0 184 0 2 0 4 0 5-5-1-11-3-15-2-9 1-14 10-11 18 8 23 16 46 23 68 3 6 3 13 3 19 0 15 5 20 19 20 103 0 205 0 308 0 14 0 20-5 20-20 0-9 1-17 4-25 7-20 14-40 20-60 3-8 2-14-3-18-5-4-13-4-20 1 0 0-1 0-2 1 0-2 0-4 0-6 0-61 0-123 0-183 0-15-5-21-20-21-8 0-17 0-26 0 0 0 0 0-1 1 0 52 0 104 0 156-27 0-53 0-79 0 1-52 1-104 1-157z m-48 48c0 37 0 73 0 109-42 0-85 0-126 0 0-36 0-73 0-109 42 0 84 0 126 0z m-20 236c0-20-1-39-2-59 0-2-1-5 0-7 1-2 1-6 2-8 4-9 15-14 25-12 10 3 17 11 17 22 0 14-1 28-1 42 0 8 0 15 0 22-14 0-27 0-41 0z m-93 0c-11 0-23 0-34 0-4 0-5-1-7-5-5-18-10-36-16-54-3-12 5-24 17-27 12-2 25 7 26 19 1 5 2 10 3 16 4 17 8 34 11 51z m226 0c0-2 0-3 0-5 3-14 7-28 9-42 2-7 3-14 4-21 1-12 13-20 26-18 11 2 21 14 18 25-6 19-11 38-17 58-1 1-2 3-3 3-12 0-25 0-37 0z m-159 0c-11 0-20 0-30 0-10 0-10 0-12-9-2-17-6-34-8-51-3-13 6-25 19-26 13-1 24 8 25 22 0 11 2 23 3 33 1 11 2 20 3 31z m92 0c0-2 0-4 1-5 2-20 4-40 5-60 1-13 12-22 24-21 12 1 22 11 21 24-3 20-7 39-10 59 0 1-2 3-3 3-13 0-25 0-38 0z m-46 111c51 0 102 0 153 0 15 0 21-6 21-21 0-4 0-7 0-11-1-9-7-15-17-16-1 0-2 0-3 0-103 0-205 0-308 0-1 0-2 0-3 0-9 1-15 7-16 16 0 4 0 7 0 12 0 14 5 20 19 20 28 0 55 0 83 0 24 0 47 0 71 0z"/>
<glyph unicode="&#120;" d="M467 454l0-318-158 0 0-53 106 0 0-26-318 0 0 26 106 0 0 53-159 0 0 318z m-397-291l371 0 0 264-371 0z m302 246l0-21-27-28-47 0-62-47-31 15-78-64 0 19 76 63 30-15 60 44 45 0z m-229-222l46 0 0 46-46 0z m61 0l46 0 0 77-46 0z m61 0l46 0 0 107-46 0z m62 0l45 0 0 137-45 0z"/>
<glyph unicode="&#121;" d="M452 340l0-26c0-7-3-13-7-18-5-4-11-7-17-7l-49 0c-6 0-12 3-17 7-5 5-7 11-7 18 0 14-5 27-14 39-18 22-46 33-84 32-38 1-66-10-83-32-10-12-14-25-14-39 0-7-2-13-7-18-5-4-10-7-17-7l-49 0c-7 0-13 3-17 7-4 5-7 11-7 18l0 26c0 15 9 30 28 45 19 15 41 28 65 36 24 9 58 14 101 14 44 0 77-4 101-14 25-8 46-21 65-36 19-15 29-30 29-45z m-90-60c44-63 65-110 65-138l0-47c0-7-2-13-7-17-4-4-10-7-17-7l-291 0c-7 0-13 2-17 7-4 5-7 10-7 17l0 49c0 23 21 68 65 135 4 7 11 10 21 10l11 0 0 31c0 4 2 9 7 13 5 3 10 5 17 5 7 0 13-2 17-5 5-4 7-9 7-13l0-31 49 0 0 31c0 4 2 9 7 13 5 3 10 5 17 5 7 0 13-2 17-5 5-4 7-9 7-13l0-31 13 0c7 0 14-3 19-9z m-104-185c20 0 37 7 51 21 14 14 21 32 21 52 0 20-7 37-21 52-14 14-31 21-51 21-21 0-38-7-52-21-14-14-21-31-21-52 0-20 7-37 21-52 14-13 31-21 52-21z m48 73c0-13-5-24-14-34-10-10-21-14-34-14-13 0-25 4-34 14-10 10-15 21-15 34 0 13 5 24 15 34 9 10 21 15 34 15 13 0 24-5 34-15 9-9 14-20 14-34z"/>
<glyph unicode="&#122;" d="M11 378c5 1 11 2 15 4 10 2 19 4 28 7 12 4 24 8 37 11 7 2 15 4 22 6 10 3 21 6 33 9 2 1 4 1 7 1 0-13 0-26 0-39 0-15 0-32 0-47 0-7-3-10-10-11-7-2-14-4-20-5-10-3-19-6-29-8-4-1-8-3-13-4 13-3 26-7 38-10 8-3 15-5 23-7 13-3 27-6 40-10 8-2 15-5 23-7 8-2 15-4 23-6 5-2 11-4 16-5 4 0 8 0 11 1 9 2 17 5 26 7 14 4 28 9 42 13 12 3 25 6 38 9 3 1 6 2 9 3 9 3 19 5 28 8 5 1 9 3 14 4-8 2-16 4-24 6-10 3-20 5-30 8-6 1-13 4-20 6-1 1-2 2-2 4 0 30 0 60 0 91 49-13 97-26 146-40-22-25-44-50-66-75 16-31 31-62 46-93-3-2-7-3-10-4-13-4-27-8-41-12-13-3-26-6-39-9-2-1-4-1-6-2-10-3-21-6-31-9-11-3-22-6-33-10-9-2-12-1-15 8-2 6-5 11-8 15-5 10-9 19-14 28-5 11-11 22-17 33-1 2-2 5-3 7-14-31-29-61-45-92-56 15-113 31-170 47 15 31 31 62 47 93-6 7-12 14-19 21-4 5-9 10-13 15-7 9-15 18-22 27-4 4-8 8-12 12 0 0 0 1 0 1z m66-289c0 3 0 5 0 6 0 16 0 32 0 48 0 8 0 17 0 25 0 2 0 4 3 3 12-3 24-6 36-9 13-4 26-7 40-11 8-2 16-5 25-7 9-3 18-5 27-8 4-1 5 0 6 3 6 12 12 25 19 38 0 1 1 2 3 3 0-44 0-88 0-134-54 14-107 29-159 43z m181-43c0 46 0 90 0 135 0 0 0 0 1 0 7-16 15-30 22-46 8 2 15 5 23 7 8 2 15 4 22 6 11 3 22 7 32 10 10 3 19 5 28 7 9 3 18 5 28 7 0-6 0-13 0-19 0-5 1-9 1-13 0-4-1-7-1-11 0-10 1-20 1-30 0-3 0-7-1-9-2-2-5-3-8-4-11-3-22-6-34-9-9-3-17-6-27-8-14-4-28-7-42-11-2 0-5-1-7-2-5-1-10-3-15-4-5-1-10-3-16-5-1 0-4 0-7-1z m65 381c0-2 0-3 0-4 0-34 0-68 0-102 0-7-2-8-9-8-14 0-28 0-41 0-4 0-8-3-11-4-1 0-2-1-3-1-12-9-15-9-27 0-5 4-10 5-16 5-13-1-27 0-40 0-6 0-8 2-8 8 0 34 0 69 0 103 0 7 3 9 12 7 0-1 0-3 0-5 0-27 0-53 0-80 0-2 0-5 0-7 1-5 3-9 9-9 8 0 17 0 26 0 9 0 16-1 22-9 4-5 13-5 17 1 4 6 10 8 17 8 9 0 18 0 28 0 9 0 11 3 11 12 0 21 1 42 0 62 0 11 5 17 13 23z m-131 23c14 0 28 1 42-6 4-3 6-5 6-10-1-30 0-60 0-90 0-2 0-3 0-6-15 10-31 4-48 5 0 35 0 71 0 107z m107-52c0-19 0-37 0-55-9 0-17 0-24 0-8 0-16 0-23-6 0 3-1 4-1 5 0 31 0 62 0 93 0 4 2 6 5 7 9 6 19 7 29 7 4 1 9 0 14 0-4-5-7-10-11-16-1 2-2 4-3 6-3 4-7 6-11 3-7-4-13-8-19-11-5-4-5-11 1-13 11-5 18-13 26-21 6-7 10-7 17 1z m-9 1c-10 9-20 18-30 27 5 3 12 7 19 11 3-6 6-12 10-19 10 20 21 40 42 52 0-9 0-18 0-28-17-10-29-26-41-43z"/>
<glyph unicode="&#49;" d="M85 316c58-16 117-32 176-48-16-33-32-66-49-99-59 16-118 33-178 49 5 11 10 21 15 30 11 22 21 43 32 65 1 3 1 5-1 8-22 25-44 50-66 75 12 3 24 7 35 10 46 13 92 25 139 38 3 1 5 1 8-3 11-14 24-28 36-42 4-3 5-7 4-13-19 0-37 0-56 0 0-14 0-28 0-43-32-8-63-17-95-26 0 0 0 0 0-1z m176-48c60 16 118 32 179 49-8 2-14 4-20 5-23 7-47 13-70 20-4 1-5 2-5 6 0 13 0 25 0 38-19 0-37 0-56 0-1 6-1 11 3 16 13 13 24 27 36 41 2 2 3 2 6 2 55-15 110-31 164-46 3-1 6-2 11-3-23-26-47-53-69-79 16-33 33-66 49-99-59-16-118-33-178-49-17 33-33 65-50 99z m178-175c-55-15-110-30-165-46 0 46 0 92 0 138 0 0 0 0 1 0 7-15 15-30 23-45 47 13 94 25 142 39-1-30-1-58-1-86z m-214 47c7 15 15 30 23 46 0-46 0-92 0-138-55 15-109 30-164 45 0 28 0 57 0 86 47-14 93-26 141-39z m-35 236c19 0 37 0 56 0 0 19 0 38 0 56 11 0 21 0 32 0 0-18 0-37 0-56 19 0 37 0 56 0 0-11 0-21 0-32-18 0-36 0-56 0 0-18 0-37 0-56-11 0-21 0-32 0 0 19 0 37 0 56-19 0-37 0-56 0 0 11 0 21 0 32z"/>
<glyph unicode="&#50;" d="M449 435l0-291-146 0 0-49 97 0 0-24-291 0 0 24 97 0 0 49-145 0 0 291z m-364-267l340 0 0 243-340 0z"/>
<glyph unicode="&#51;" d="M259 58c-109 0-198 90-198 199 0 109 89 198 198 198 110 0 199-89 199-199 0-109-89-198-199-198z m-27 272c5 0 12 0 19 0 6-1 13-3 19-4 2-1 4 1 6 2 5 5 11 10 16 16 14 12 35 11 48-2 12-13 12-34 0-48-17-17-34-34-52-51-13-13-34-13-47 1-3 4-6 9-9 14-8-8-16-18-25-26 19-36 73-45 105-15 18 17 37 36 54 55 25 26 24 67-1 93-24 26-65 31-93 7-14-13-27-28-40-42z m68-49c0 0-1 1-2 2-23 35-72 41-103 13-19-17-38-36-55-55-24-25-24-65 0-92 23-26 63-32 90-12 17 13 32 30 48 44-8 1-15 1-21 2-7 0-14 3-21 4-2 1-4-1-5-2-6-6-11-11-16-16-15-12-34-11-48 2-13 12-14 33-2 46 17 19 35 37 54 54 17 15 43 9 53-11 1-2 1-3 2-6 9 8 18 18 26 27z"/>
</font>
</defs>
</svg>
