<?xml version="1.0" standalone="no"?>
<!DOCTYPE svg PUBLIC "-//W3C//DTD SVG 1.1//EN" "http://www.w3.org/Graphics/SVG/1.1/DTD/svg11.dtd" >
<svg xmlns="http://www.w3.org/2000/svg">
<metadata>Generated by IcoMoon</metadata>
<defs>
<font id="icomoon" horiz-adv-x="1024">
<font-face units-per-em="1024" ascent="960" descent="-64" />
<missing-glyph horiz-adv-x="1024" />
<glyph unicode="&#x20;" horiz-adv-x="512" d="" />
<glyph unicode="&#xe900;" glyph-name="Add-New-Document" d="M61.44 773.12h719.36v-266.24c20.48-2.56 40.96-5.12 58.88-10.24v281.6c0 30.72-25.6 53.76-53.76 53.76h-432.64v97.28c0 7.68-2.56 15.36-7.68 20.48s-12.8 7.68-20.48 7.68h-291.84c-7.68 0-15.36-2.56-20.48-7.68-7.68-5.12-10.24-12.8-10.24-20.48v-668.16c0-30.72 25.6-53.76 56.32-56.32h394.24c0 20.48 2.56 40.96 5.12 58.88h-396.8v509.44zM61.44 898.56h232.96v-66.56h-232.96v66.56zM714.24 647.68c0 15.36-12.8 30.72-30.72 30.72h-519.68c-15.36 0-30.72-12.8-30.72-30.72s12.8-28.16 30.72-28.16h519.68c17.92 0 30.72 12.8 30.72 28.16zM448 448c0 15.36-12.8 30.72-28.16 30.72h-222.72c-15.36 0-28.16-12.8-28.16-30.72s12.8-28.16 28.16-28.16h220.16c17.92-2.56 30.72 10.24 30.72 28.16zM197.12 394.24c-15.36 0-28.16-12.8-28.16-30.72s12.8-28.16 28.16-28.16h107.52c15.36 0 30.72 12.8 30.72 28.16s-12.8 30.72-30.72 30.72h-107.52zM755.2 471.040c-145.92 0-266.24-117.76-266.24-266.24 0-145.92 117.76-266.24 266.24-266.24 145.92 0 266.24 117.76 266.24 266.24s-120.32 266.24-266.24 266.24zM898.56 61.44c-35.84-35.84-87.040-58.88-143.36-58.88s-104.96 23.040-143.36 58.88c-35.84 35.84-58.88 87.040-58.88 143.36s23.040 104.96 58.88 143.36c35.84 35.84 87.040 58.88 143.36 58.88s104.96-23.040 143.36-58.88c35.84-35.84 58.88-87.040 58.88-143.36 0-58.88-23.040-104.96-58.88-143.36zM880.64 235.52h-92.16v92.16c0 17.92-15.36 33.28-33.28 33.28s-33.28-15.36-33.28-33.28v-92.16h-92.16c-17.92 0-33.28-15.36-33.28-33.28s15.36-33.28 33.28-33.28h92.16v-92.16c0-17.92 15.36-33.28 33.28-33.28s33.28 15.36 33.28 33.28v92.16h92.16c17.92 0 33.28 15.36 33.28 33.28s-15.36 33.28-33.28 33.28z" />
<glyph unicode="&#xe901;" glyph-name="Add-New-Message" d="M768 273.92c0-48.64-38.4-89.6-84.48-89.6h-10.24c-15.36 0-28.16-15.36-28.16-30.72v-102.4l-120.32 125.44c-5.12 5.12-12.8 7.68-20.48 7.68h-350.72c-46.080 0-84.48 40.96-84.48 89.6v337.92c0 48.64 38.4 89.6 84.48 89.6h299.52c0 20.48 2.56 40.96 7.68 58.88h-307.2c-79.36 0-140.8-66.56-140.8-148.48v-337.92c0-81.92 64-148.48 140.8-148.48h335.36l161.28-168.96c5.12-5.12 12.8-7.68 20.48-7.68 5.12 0 7.68 0 10.24 2.56 10.24 5.12 17.92 15.36 17.92 28.16v148.48c71.68 10.24 122.88 71.68 122.88 148.48v122.88c-17.92-5.12-35.84-7.68-53.76-7.68v-117.76zM181.76 353.28c0-15.36 12.8-30.72 28.16-30.72h417.28c15.36 0 28.16 15.36 28.16 30.72s-12.8 30.72-28.16 30.72h-417.28c-17.92 0-28.16-12.8-28.16-30.72zM209.92 547.84c-15.36 0-28.16-15.36-28.16-30.72s12.8-30.72 28.16-30.72h322.56c-17.92 17.92-30.72 38.4-43.52 61.44h-279.040zM752.64 947.2c-143.36 0-258.56-115.2-258.56-258.56s115.2-258.56 258.56-258.56c143.36 0 258.56 115.2 258.56 258.56s-117.76 258.56-258.56 258.56zM890.88 550.4c-35.84-35.84-84.48-56.32-140.8-56.32-53.76 0-102.4 23.040-140.8 56.32-35.84 35.84-56.32 84.48-56.32 140.8s23.040 102.4 56.32 140.8c35.84 35.84 84.48 56.32 140.8 56.32 53.76 0 102.4-23.040 140.8-56.32 35.84-35.84 56.32-84.48 56.32-140.8 2.56-58.88-20.48-104.96-56.32-140.8zM872.96 719.36h-89.6v89.6c0 17.92-15.36 33.28-33.28 33.28s-33.28-15.36-33.28-33.28v-89.6h-89.6c-17.92 0-33.28-15.36-33.28-33.28s15.36-33.28 33.28-33.28h89.6v-89.6c0-17.92 15.36-33.28 33.28-33.28s33.28 15.36 33.28 33.28v89.6h89.6c17.92 0 33.28 15.36 33.28 33.28s-15.36 33.28-33.28 33.28z" />
<glyph unicode="&#xe902;" glyph-name="Add-New-Quicklink" d="M729.6 637.44c35.84 35.84 51.2 79.36 51.2 125.44 2.56 46.080-17.92 92.16-51.2 125.44-74.24 71.68-176.64 76.8-245.76 7.68l-48.64-48.64c-17.92-17.92-20.48-48.64 0-66.56 17.92-17.92 48.64-20.48 66.56 0l51.2 51.2c35.84 35.84 79.36 20.48 110.080-7.68 15.36-15.36 23.040-35.84 23.040-58.88s-7.68-43.52-23.040-58.88l-153.6-151.040c-69.12-69.12-102.4-35.84-115.2-23.040-17.92 17.92-48.64 17.92-66.56 0s-17.92-48.64 0-66.56c33.28-30.72 66.56-48.64 107.52-48.64 46.080 0 94.72 23.040 140.8 69.12l153.6 151.040zM299.52 343.040l-38.4-35.84c-33.28-33.28-87.040-33.28-122.88 0-15.36 15.36-23.040 35.84-23.040 58.88s7.68 43.52 23.040 58.88l140.8 140.8c30.72 28.16 84.48 71.68 122.88 33.28 20.48-17.92 48.64-17.92 66.56 0s17.92 48.64 0 66.56c-66.56 66.56-168.96 53.76-258.56-33.28l-140.8-140.8c-35.84-35.84-51.2-79.36-51.2-125.44s20.48-94.72 51.2-125.44c35.84-35.84 79.36-51.2 125.44-51.2s92.16 17.92 125.44 51.2l38.4 38.4c17.92 17.92 20.48 48.64 0 66.56-10.24 15.36-38.4 15.36-58.88-2.56zM744.96 468.48c-143.36 0-258.56-115.2-258.56-258.56s115.2-258.56 258.56-258.56c143.36 0 258.56 115.2 258.56 258.56s-115.2 258.56-258.56 258.56zM885.76 71.68c-35.84-35.84-84.48-56.32-140.8-56.32-53.76 0-102.4 23.040-140.8 56.32-35.84 35.84-56.32 84.48-56.32 140.8s23.040 102.4 56.32 140.8c35.84 35.84 84.48 56.32 140.8 56.32 53.76 0 102.4-23.040 140.8-56.32 35.84-35.84 56.32-84.48 56.32-140.8 0-58.88-23.040-107.52-56.32-140.8zM867.84 240.64h-89.6v89.6c0 17.92-15.36 33.28-33.28 33.28s-33.28-15.36-33.28-33.28v-89.6h-89.6c-17.92 0-33.28-15.36-33.28-33.28s15.36-33.28 33.28-33.28h89.6v-89.6c0-17.92 15.36-33.28 33.28-33.28s33.28 15.36 33.28 33.28v89.6h89.6c17.92 0 33.28 15.36 33.28 33.28s-15.36 33.28-33.28 33.28z" />
<glyph unicode="&#xe903;" glyph-name="Add-User" d="M148.48 453.12c46.080 46.080 110.080 74.24 181.76 74.24s135.68-28.16 181.76-74.24c10.24-10.24 20.48-20.48 28.16-33.28 15.36 15.36 33.28 30.72 53.76 40.96-10.24 12.8-20.48 28.16-33.28 38.4-56.32 56.32-133.12 92.16-217.6 94.72 43.52 2.56 84.48 20.48 115.2 51.2 33.28 33.28 53.76 79.36 53.76 128s-17.92 92.16-53.76 128c-33.28 33.28-79.36 53.76-128 53.76s-92.16-17.92-128-53.76c-33.28-33.28-53.76-79.36-53.76-128s17.92-92.16 53.76-128c30.72-30.72 71.68-48.64 115.2-51.2-84.48-2.56-161.28-38.4-217.6-94.72-58.88-58.88-94.72-140.8-94.72-230.4 0-10.24 2.56-17.92 10.24-23.040 5.12-5.12 15.36-10.24 23.040-10.24h409.6c2.56 23.040 7.68 46.080 15.36 69.12h-386.56c7.68 58.88 33.28 110.080 71.68 148.48zM250.88 696.32c-20.48 20.48-33.28 48.64-33.28 79.36s12.8 58.88 33.28 79.36c20.48 20.48 48.64 33.28 79.36 33.28s58.88-12.8 79.36-33.28c20.48-20.48 33.28-48.64 33.28-79.36s-12.8-58.88-33.28-79.36c-20.48-20.48-48.64-33.28-79.36-33.28s-58.88 12.8-79.36 33.28zM752.64 471.040c-145.92 0-266.24-117.76-266.24-266.24 0-145.92 117.76-266.24 266.24-266.24 145.92 0 266.24 117.76 266.24 266.24s-120.32 266.24-266.24 266.24zM896 64c-35.84-35.84-87.040-58.88-143.36-58.88s-104.96 23.040-143.36 58.88c-35.84 35.84-58.88 87.040-58.88 143.36s23.040 104.96 58.88 143.36c35.84 35.84 87.040 58.88 143.36 58.88s104.96-23.040 143.36-58.88c35.84-35.84 58.88-87.040 58.88-143.36 0-58.88-23.040-107.52-58.88-143.36zM878.080 238.080h-92.16v92.16c0 17.92-15.36 33.28-33.28 33.28s-33.28-15.36-33.28-33.28v-92.16h-92.16c-17.92 0-33.28-15.36-33.28-33.28s15.36-33.28 33.28-33.28h92.16v-92.16c0-17.92 15.36-33.28 33.28-33.28s33.28 15.36 33.28 33.28v92.16h92.16c17.92 0 33.28 15.36 33.28 33.28s-15.36 33.28-33.28 33.28z" />
<glyph unicode="&#xe904;" glyph-name="Banner" d="M903.68 865.28h-783.36c-58.88 0-107.52-48.64-107.52-107.52v-542.72c0-7.68 2.56-15.36 7.68-20.48s12.8-7.68 20.48-7.68h496.64l-23.040 56.32h-442.88v512c0 28.16 20.48 51.2 48.64 51.2h783.36c28.16 0 48.64-23.040 48.64-48.64v-512h-38.4c7.68-10.24 10.24-20.48 12.8-33.28 0-7.68 0-17.92-2.56-25.6h58.88c7.68 0 15.36 2.56 20.48 7.68s7.68 12.8 7.68 20.48v542.72c0 58.88-48.64 107.52-107.52 107.52zM130.56 698.88h25.6c15.36 0 30.72 12.8 30.72 30.72s-12.8 30.72-30.72 30.72h-25.6c-15.36 0-28.16-15.36-28.16-30.72s12.8-30.72 28.16-30.72zM865.28 696.32c15.36 0 30.72 12.8 30.72 30.72s-15.36 28.16-30.72 28.16h-588.8c-15.36 0-30.72-12.8-30.72-30.72s12.8-30.72 30.72-30.72h588.8zM99.84 376.32c0-7.68 2.56-17.92 10.24-23.040 5.12-5.12 12.8-7.68 23.040-7.68h358.4c2.56 10.24 7.68 20.48 17.92 28.16 12.8 12.8 30.72 20.48 48.64 20.48 7.68 0 17.92-2.56 25.6-5.12l107.52-43.52h199.68c7.68 0 17.92 2.56 23.040 10.24 5.12 5.12 10.24 15.36 10.24 23.040v248.32c0 7.68-2.56 17.92-10.24 23.040-5.12 5.12-15.36 10.24-23.040 10.24h-757.76c-7.68 0-17.92-2.56-23.040-10.24-7.68-5.12-10.24-15.36-10.24-23.040v-250.88zM166.4 593.92h691.2v-184.32h-691.2v184.32zM811.52 143.36l64 35.84c10.24 5.12 15.36 15.36 15.36 28.16 0 10.24-7.68 20.48-17.92 25.6l-302.080 120.32c-10.24 5.12-23.040 2.56-30.72-7.68-7.68-7.68-10.24-20.48-7.68-30.72l117.76-302.080c5.12-10.24 12.8-17.92 25.6-17.92 10.24 0 23.040 5.12 28.16 15.36l35.84 64 117.76-117.76c5.12-5.12 12.8-7.68 20.48-7.68s15.36 2.56 20.48 7.68l30.72 30.72c10.24 10.24 10.24 30.72 0 40.96l-117.76 115.2zM729.6 79.36v0 0 0zM770.56 189.44v0c0 0 0 0 0 0v0 0c-12.8-7.68-23.040-20.48-25.6-35.84v-7.68c0-2.56 0-7.68 0-10.24-2.56 0-7.68 0-10.24 0h-7.68c-15.36-2.56-28.16-10.24-35.84-25.6v0l-10.24-20.48-71.68 181.76 181.76-71.68-20.48-10.24zM801.28 151.040v0 0 0z" />
<glyph unicode="&#xe905;" glyph-name="Dashboard" d="M512 870.4c0 0 0 0 0 0s0 0 0 0v0c-133.12 0-256-56.32-343.040-148.48 0 0 0 0 0 0s0 0 0 0c-89.6-92.16-143.36-217.6-143.36-358.4 0 0 0 0 0 0s0 0 0 0c0-117.76 40.96-230.4 110.080-322.56 7.68-10.24 17.92-15.36 30.72-15.36h688.64c12.8 0 23.040 5.12 30.72 15.36 71.68 89.6 110.080 202.24 110.080 322.56 2.56 279.040-215.040 506.88-483.84 506.88zM837.12 110.080h-650.24c-43.52 61.44-71.68 133.12-79.36 209.92h120.32c23.040 0 40.96 17.92 40.96 40.96s-17.92 40.96-40.96 40.96h-120.32c7.68 84.48 40.96 161.28 89.6 225.28l28.16-25.6c15.36-15.36 40.96-15.36 56.32 0s15.36 43.52 0 58.88l-25.6 30.72c58.88 51.2 135.68 84.48 215.040 92.16v-125.44c0-23.040 17.92-40.96 40.96-40.96s40.96 17.92 40.96 40.96v125.44c81.92-7.68 156.16-40.96 215.040-92.16l-25.6-28.16c-15.36-15.36-15.36-43.52 0-58.88s40.96-15.36 56.32 0l28.16 28.16c48.64-61.44 81.92-140.8 89.6-225.28h-120.32c-23.040 0-40.96-17.92-40.96-40.96s17.92-40.96 40.96-40.96h120.32c-7.68-79.36-35.84-153.6-79.36-215.040zM519.68 279.040l115.2 238.080-230.4-120.32 115.2-117.76z" />
<glyph unicode="&#xe906;" glyph-name="Document-Category-List" d="M58.88 266.24v509.44h719.36v-194.56c23.040-5.12 43.52-17.92 58.88-38.4v235.52c0 30.72-25.6 53.76-56.32 56.32h-430.080v94.72c0 7.68-2.56 15.36-7.68 20.48-5.12 7.68-12.8 10.24-20.48 10.24h-291.84c-10.24 0-15.36-2.56-23.040-7.68-5.12-7.68-7.68-12.8-7.68-23.040v-668.16c0-30.72 25.6-53.76 56.32-53.76h471.040l-33.28 58.88h-435.2zM58.88 901.12h232.96v-66.56h-232.96v66.56zM683.52 678.4h-522.24c-15.36 0-28.16-12.8-28.16-30.72s12.8-30.72 28.16-30.72h519.68c15.36 0 28.16 12.8 28.16 30.72s-10.24 30.72-25.6 30.72zM414.72 478.72h-217.6c-15.36 0-30.72-12.8-30.72-30.72s12.8-30.72 30.72-30.72h220.16c15.36 0 30.72 12.8 30.72 30.72s-15.36 30.72-33.28 30.72zM302.080 394.24h-104.96c-15.36 0-30.72-12.8-30.72-30.72s12.8-30.72 30.72-30.72h107.52c15.36 0 30.72 12.8 30.72 30.72s-15.36 30.72-33.28 30.72zM673.28 322.56c10.24 0 20.48 2.56 30.72 7.68 20.48 10.24 30.72 33.28 30.72 53.76 0 10.24-2.56 20.48-7.68 30.72-10.24 17.92-30.72 30.72-53.76 30.72-10.24 0-20.48-2.56-30.72-7.68-20.48-10.24-30.72-33.28-30.72-53.76 0-10.24 2.56-20.48 7.68-30.72 10.24-20.48 33.28-30.72 53.76-30.72zM811.52 509.44c-10.24 20.48-30.72 33.28-53.76 35.84l-133.12 17.92c-2.56 0-7.68 0-10.24 0-28.16 0-56.32-17.92-66.56-46.080l-51.2-125.44c-2.56-10.24-5.12-17.92-5.12-28.16 0-12.8 2.56-25.6 10.24-35.84l202.24-355.84c12.8-23.040 38.4-35.84 64-35.84 12.8 0 25.6 2.56 35.84 10.24l184.32 107.52c23.040 12.8 35.84 38.4 35.84 64 0 12.8-5.12 25.6-10.24 35.84l-202.24 355.84zM957.44 104.96l-184.32-107.52c-2.56-2.56-5.12-2.56-7.68-2.56-5.12 0-10.24 2.56-12.8 7.68l-202.24 355.84c0 2.56-2.56 5.12-2.56 7.68v5.12l51.2 125.44c2.56 5.12 7.68 7.68 12.8 7.68h2.56l133.12-17.92c5.12 0 7.68-2.56 10.24-7.68l202.24-355.84c2.56-2.56 2.56-5.12 2.56-7.68s-2.56-7.68-5.12-10.24z" />
<glyph unicode="&#xe907;" glyph-name="Document-List" d="M967.68 545.28h-192v-58.88h176.64v-483.84h-430.080v268.8h-58.88v-284.16c0-25.6 20.48-43.52 43.52-43.52h460.8c25.6 0 43.52 20.48 43.52 43.52v512c0 25.6-17.92 46.080-43.52 46.080zM611.84 140.8c-17.92 0-30.72-12.8-30.72-28.16s12.8-30.72 28.16-30.72h279.040c15.36 0 30.72 12.8 30.72 30.72s-12.8 28.16-28.16 28.16h-279.040zM890.88 273.92h-176.64c-7.68-2.56-17.92-5.12-28.16-5.12v0h-92.16c-7.68-5.12-12.8-12.8-12.8-23.040 0-15.36 12.8-30.72 28.16-30.72h279.040c15.36 0 30.72 12.8 30.72 30.72s-12.8 28.16-28.16 28.16zM919.040 381.44c0 17.92-12.8 28.16-28.16 28.16h-115.2v-51.2c0-2.56 0-5.12 0-7.68h112.64c15.36 0 30.72 12.8 30.72 30.72zM737.28 358.4v437.76c0 28.16-23.040 51.2-51.2 51.2h-358.4v76.8c0 7.68-2.56 15.36-7.68 20.48s-12.8 7.68-20.48 7.68h-248.32c-7.68 0-15.36-2.56-20.48-7.68s-10.24-12.8-10.24-20.48v-565.76c0-28.16 23.040-51.2 51.2-51.2h614.4c28.16 2.56 51.2 23.040 51.2 51.2zM79.36 896h189.44v-48.64h-189.44v48.64zM678.4 368.64h-599.040v419.84h599.040v-419.84zM133.12 688.64c0-15.36 12.8-30.72 30.72-30.72h440.32c15.36 0 28.16 12.8 28.16 30.72s-12.8 30.72-28.16 30.72h-440.32c-17.92-2.56-30.72-15.36-30.72-30.72zM378.88 545.28h-186.88c-15.36 0-30.72-12.8-30.72-28.16 0-2.56 0-5.12 2.56-7.68 2.56-12.8 15.36-20.48 28.16-20.48h184.32c15.36 0 30.72 12.8 30.72 30.72s-12.8 25.6-28.16 25.6zM281.6 476.16h-89.6c-15.36 0-30.72-12.8-30.72-30.72s12.8-28.16 30.72-28.16h89.6c15.36 0 28.16 12.8 28.16 28.16s-10.24 30.72-28.16 30.72z" />
<glyph unicode="&#xe908;" glyph-name="Documents" d="M870.4 704h-430.080v94.72c0 7.68-2.56 15.36-7.68 20.48s-12.8 7.68-20.48 7.68h-291.84c-7.68 0-15.36-2.56-20.48-7.68s-10.24-10.24-10.24-20.48v-668.16c0-30.72 25.6-53.76 56.32-56.32h724.48c30.72 0 53.76 25.6 56.32 56.32v517.12c-2.56 30.72-25.6 56.32-56.32 56.32zM148.48 770.56h232.96v-66.56h-232.96v66.56zM865.28 135.68h-716.8v509.44h719.36v-509.44zM222.72 519.68c0-15.36 12.8-30.72 28.16-30.72h519.68c15.36 0 28.16 12.8 28.16 30.72s-12.8 28.16-28.16 28.16h-519.68c-15.36 0-28.16-12.8-28.16-28.16zM506.88 348.16h-220.16c-15.36 0-30.72-12.8-30.72-28.16s12.8-30.72 30.72-30.72h220.16c15.36 0 30.72 12.8 30.72 30.72s-15.36 28.16-30.72 28.16zM391.68 263.68h-107.52c-15.36 0-30.72-12.8-30.72-28.16s12.8-30.72 30.72-30.72h107.52c15.36 0 30.72 12.8 30.72 30.72s-12.8 28.16-30.72 28.16z" />
<glyph unicode="&#xe909;" glyph-name="Logo" d="M512 926.72c-263.68 0-478.72-215.040-478.72-478.72s215.040-478.72 478.72-478.72c263.68 0 478.72 215.040 478.72 478.72s-215.040 478.72-478.72 478.72zM808.96 151.040c-76.8-76.8-181.76-122.88-296.96-122.88s-220.16 46.080-296.96 122.88c-76.8 76.8-122.88 181.76-122.88 296.96s46.080 220.16 122.88 296.96c76.8 76.8 181.76 122.88 296.96 122.88s220.16-46.080 296.96-122.88c76.8-76.8 122.88-181.76 122.88-296.96s-46.080-220.16-122.88-296.96zM783.36 563.2h-186.88l-58.88 176.64c-2.56 15.36-12.8 23.040-25.6 23.040s-23.040-7.68-28.16-20.48l-58.88-176.64h-184.32c-12.8 0-23.040-7.68-28.16-20.48s0-25.6 10.24-33.28l151.040-110.080-58.88-176.64c-5.12-12.8 0-25.6 10.24-33.28s25.6-7.68 35.84 0l151.040 110.080 151.040-110.080c10.24-7.68 25.6-7.68 35.84 0s15.36 20.48 10.24 33.28l-58.88 176.64 151.040 110.080c10.24 7.68 15.36 20.48 10.24 33.28-2.56 10.24-15.36 17.92-28.16 17.92zM599.040 435.2c-10.24-7.68-15.36-20.48-10.24-33.28l35.84-112.64-94.72 69.12c-10.24 7.68-25.6 7.68-35.84 0l-94.72-69.12 35.84 112.64c5.12 12.8 0 25.6-10.24 33.28l-94.72 69.12h117.76c12.8 0 23.040 7.68 28.16 20.48l35.84 112.64 35.84-112.64c5.12-12.8 15.36-20.48 28.16-20.48h117.76l-94.72-69.12z" />
<glyph unicode="&#xe90a;" glyph-name="Message" d="M844.8 960h-665.6c-99.84 0-179.2-84.48-179.2-186.88v-427.52c0-102.4 79.36-186.88 179.2-186.88h422.4l202.24-212.48c7.68-7.68 15.36-10.24 25.6-10.24 5.12 0 10.24 0 12.8 2.56 12.8 5.12 23.040 20.48 23.040 35.84v186.88c89.6 12.8 156.16 89.6 156.16 186.88v424.96c2.56 102.4-76.8 186.88-176.64 186.88zM952.32 345.6c0-61.44-48.64-112.64-107.52-112.64h-12.8c-20.48 0-35.84-17.92-35.84-38.4v-130.56l-151.040 158.72c-7.68 7.68-15.36 10.24-25.6 10.24h-440.32c-58.88 0-107.52 51.2-107.52 112.64v427.52c0 61.44 48.64 112.64 107.52 112.64h665.6c58.88 0 107.52-51.2 107.52-112.64v-427.52zM775.68 693.76h-527.36c-20.48 0-35.84-17.92-35.84-38.4s15.36-38.4 35.84-38.4h527.36c20.48 0 35.84 17.92 35.84 38.4 0 23.040-15.36 38.4-35.84 38.4zM775.68 486.4h-527.36c-20.48 0-35.84-17.92-35.84-38.4s15.36-38.4 35.84-38.4h527.36c20.48 0 35.84 17.92 35.84 38.4s-15.36 38.4-35.84 38.4z" />
<glyph unicode="&#xe90b;" glyph-name="Message-List" d="M811.52 934.4h-599.040c-30.72 0-53.76-25.6-53.76-56.32v-860.16c0-30.72 25.6-53.76 56.32-53.76h599.040c30.72 0 53.76 25.6 56.32 53.76v860.16c-5.12 30.72-28.16 56.32-58.88 56.32zM806.4 20.48h-588.8v855.040h591.36v-855.040zM432.64 706.56h307.2c15.36 0 30.72 12.8 30.72 28.16s-12.8 30.72-30.72 30.72h-307.2c-15.36 0-28.16-12.8-28.16-30.72s12.8-28.16 28.16-28.16zM284.16 704h43.52c15.36 0 30.72 12.8 30.72 30.72s-12.8 30.72-30.72 30.72h-43.52c-15.36 0-30.72-12.8-30.72-30.72s15.36-30.72 30.72-30.72zM432.64 586.24h307.2c15.36 0 30.72 12.8 30.72 28.16s-12.8 30.72-30.72 30.72h-307.2c-15.36 0-28.16-12.8-28.16-30.72s12.8-28.16 28.16-28.16zM284.16 583.68h43.52c15.36 0 30.72 12.8 30.72 30.72s-12.8 30.72-30.72 30.72h-43.52c-15.36 0-30.72-12.8-30.72-30.72s15.36-30.72 30.72-30.72zM432.64 463.36h307.2c15.36 0 30.72 12.8 30.72 28.16s-12.8 30.72-30.72 30.72h-307.2c-15.36 0-28.16-12.8-28.16-30.72s12.8-28.16 28.16-28.16zM284.16 460.8h43.52c15.36 0 30.72 12.8 30.72 30.72s-12.8 30.72-30.72 30.72h-43.52c-15.36 0-30.72-12.8-30.72-30.72s15.36-30.72 30.72-30.72zM432.64 343.040h307.2c15.36 0 30.72 12.8 30.72 28.16s-12.8 30.72-30.72 30.72h-307.2c-15.36 0-28.16-12.8-28.16-30.72s12.8-28.16 28.16-28.16zM284.16 340.48h43.52c15.36 0 30.72 12.8 30.72 30.72s-12.8 30.72-30.72 30.72h-43.52c-15.36 0-30.72-12.8-30.72-30.72s15.36-30.72 30.72-30.72zM432.64 220.16h307.2c15.36 0 30.72 12.8 30.72 28.16s-12.8 30.72-30.72 30.72h-307.2c-15.36 0-28.16-12.8-28.16-30.72s12.8-28.16 28.16-28.16zM284.16 217.6h43.52c15.36 0 30.72 12.8 30.72 30.72s-12.8 30.72-30.72 30.72h-43.52c-15.36 0-30.72-12.8-30.72-30.72s15.36-30.72 30.72-30.72zM432.64 99.84h307.2c15.36 0 30.72 12.8 30.72 28.16s-12.8 30.72-30.72 30.72h-307.2c-15.36 0-28.16-12.8-28.16-30.72s12.8-28.16 28.16-28.16zM284.16 97.28h43.52c15.36 0 30.72 12.8 30.72 30.72s-12.8 30.72-30.72 30.72h-43.52c-15.36 0-30.72-12.8-30.72-30.72s15.36-30.72 30.72-30.72z" />
<glyph unicode="&#xe90c;" glyph-name="Quicklinks" d="M391.68 184.32l-46.080-43.52c-38.4-38.4-102.4-38.4-143.36 0-17.92 17.92-28.16 43.52-28.16 69.12s10.24 51.2 28.16 69.12l166.4 166.4c35.84 33.28 99.84 84.48 145.92 38.4 23.040-20.48 56.32-20.48 79.36 0 20.48 20.48 20.48 56.32 0 79.36-79.36 79.36-199.68 64-304.64-38.4l-166.4-166.4c-40.96-40.96-61.44-92.16-61.44-148.48s23.040-110.080 61.44-148.48c40.96-40.96 94.72-61.44 148.48-61.44s107.52 20.48 148.48 61.44l46.080 46.080c20.48 20.48 23.040 56.32 0 79.36-17.92 20.48-51.2 20.48-74.24-2.56zM898.56 829.44c-87.040 84.48-207.36 89.6-289.28 10.24l-56.32-56.32c-20.48-20.48-23.040-56.32 0-79.36 20.48-20.48 56.32-23.040 79.36 0l56.32 56.32c40.96 40.96 94.72 23.040 130.56-10.24 17.92-17.92 28.16-43.52 28.16-69.12s-10.24-51.2-28.16-69.12l-179.2-176.64c-81.92-81.92-120.32-43.52-135.68-25.6-20.48 20.48-56.32 20.48-79.36 0-20.48-20.48-20.48-56.32 0-79.36 38.4-35.84 79.36-56.32 125.44-56.32 53.76 0 112.64 28.16 166.4 81.92l179.2 176.64c40.96 40.96 61.44 92.16 61.44 148.48 2.56 53.76-20.48 107.52-58.88 148.48z" />
<glyph unicode="&#xe90d;" glyph-name="Quicklinks-List" d="M967.68 545.28h-279.040l-58.88-58.88h322.56v-483.84h-430.080v399.36c-20.48-10.24-38.4-15.36-58.88-17.92v-396.8c0-25.6 20.48-43.52 43.52-43.52h460.8c25.6 0 43.52 20.48 43.52 43.52v512c0 25.6-17.92 46.080-43.52 46.080zM611.84 140.8c-17.92 0-30.72-12.8-30.72-28.16s12.8-30.72 28.16-30.72h279.040c15.36 0 30.72 12.8 30.72 30.72s-12.8 28.16-28.16 28.16h-279.040zM890.88 273.92h-279.040c-17.92 0-30.72-12.8-30.72-28.16s12.8-30.72 28.16-30.72h279.040c15.36 0 30.72 12.8 30.72 30.72s-12.8 28.16-28.16 28.16zM890.88 409.6h-279.040c-17.92 0-30.72-12.8-30.72-28.16s12.8-30.72 28.16-30.72h279.040c15.36 0 30.72 12.8 30.72 30.72s-12.8 28.16-28.16 28.16zM729.6 637.44c35.84 35.84 51.2 79.36 51.2 125.44 2.56 46.080-17.92 92.16-51.2 125.44-74.24 71.68-176.64 76.8-245.76 7.68l-48.64-48.64c-17.92-17.92-20.48-48.64 0-66.56 17.92-17.92 48.64-20.48 66.56 0l51.2 51.2c35.84 35.84 79.36 20.48 110.080-7.68 15.36-15.36 23.040-35.84 23.040-58.88s-7.68-43.52-23.040-58.88l-153.6-151.040c-69.12-69.12-102.4-35.84-115.2-23.040-17.92 17.92-48.64 17.92-66.56 0s-17.92-48.64 0-66.56c33.28-30.72 66.56-48.64 107.52-48.64 46.080 0 94.72 23.040 140.8 69.12l153.6 151.040zM299.52 343.040l-38.4-35.84c-33.28-33.28-87.040-33.28-122.88 0-15.36 15.36-23.040 35.84-23.040 58.88s7.68 43.52 23.040 58.88l140.8 140.8c30.72 28.16 84.48 71.68 122.88 33.28 20.48-17.92 48.64-17.92 66.56 0s17.92 48.64 0 66.56c-66.56 66.56-168.96 53.76-258.56-33.28l-140.8-140.8c-35.84-35.84-51.2-79.36-51.2-125.44s20.48-94.72 51.2-125.44c35.84-35.84 79.36-51.2 125.44-51.2s92.16 17.92 125.44 51.2l38.4 38.4c17.92 17.92 20.48 48.64 0 66.56-10.24 15.36-38.4 15.36-58.88-2.56z" />
<glyph unicode="&#xe90e;" glyph-name="Registered-Users" d="M929.28 432.64c-48.64 48.64-115.2 79.36-189.44 81.92 43.52 2.56 81.92 20.48 112.64 48.64 30.72 30.72 48.64 71.68 48.64 120.32 0 46.080-17.92 89.6-48.64 120.32s-71.68 48.64-120.32 48.64c-46.080 0-89.6-17.92-120.32-48.64-28.16-33.28-48.64-74.24-48.64-122.88 0-46.080 17.92-89.6 48.64-120.32 28.16-28.16 69.12-46.080 112.64-48.64-74.24-2.56-140.8-33.28-189.44-81.92-12.8-12.8-25.6-28.16-35.84-43.52 20.48-10.24 38.4-23.040 56.32-38.4 7.68 12.8 17.92 23.040 28.16 33.28 38.4 38.4 89.6 61.44 148.48 61.44s110.080-23.040 148.48-61.44c30.72-30.72 51.2-69.12 58.88-115.2h-309.76c12.8-20.48 25.6-43.52 33.28-69.12h312.32c10.24 0 17.92 2.56 23.040 10.24 5.12 5.12 10.24 15.36 10.24 23.040 2.56 81.92-28.16 151.040-79.36 202.24zM660.48 611.84c-17.92 17.92-30.72 43.52-30.72 71.68s10.24 53.76 30.72 71.68c17.92 17.92 43.52 30.72 71.68 30.72s53.76-10.24 71.68-30.72c17.92-17.92 30.72-43.52 30.72-71.68s-10.24-53.76-30.72-71.68c-17.92-17.92-43.52-30.72-71.68-30.72s-53.76 10.24-71.68 30.72zM350.72 401.92c43.52 2.56 84.48 20.48 115.2 51.2 33.28 33.28 53.76 79.36 53.76 128s-17.92 92.16-53.76 128c-33.28 33.28-79.36 53.76-128 53.76s-92.16-17.92-128-53.76c-33.28-33.28-53.76-79.36-53.76-128s17.92-92.16 53.76-128c30.72-30.72 71.68-48.64 115.2-51.2-84.48-2.56-161.28-38.4-217.6-94.72-58.88-58.88-94.72-140.8-94.72-230.4 0-10.24 2.56-17.92 10.24-23.040 5.12-5.12 15.36-10.24 23.040-10.24h581.12c10.24 0 17.92 2.56 23.040 10.24 5.12 5.12 10.24 15.36 10.24 23.040 0 89.6-35.84 171.52-94.72 230.4-56.32 56.32-130.56 92.16-215.040 94.72zM258.56 501.76c-20.48 20.48-33.28 48.64-33.28 79.36s12.8 58.88 33.28 79.36c20.48 20.48 48.64 33.28 79.36 33.28s58.88-12.8 79.36-33.28c20.48-20.48 33.28-48.64 33.28-79.36s-12.8-58.88-33.28-79.36c-20.48-20.48-48.64-33.28-79.36-33.28-30.72 2.56-58.88 15.36-79.36 33.28zM81.92 112.64c7.68 56.32 33.28 107.52 71.68 145.92 46.080 46.080 110.080 74.24 181.76 74.24s135.68-28.16 181.76-74.24c38.4-38.4 64-89.6 71.68-145.92h-506.88z" />
<glyph unicode="&#xe90f;" glyph-name="Settings" d="M949.76 550.4l-69.12 12.8c-7.68 23.040-15.36 46.080-28.16 66.56l40.96 56.32c17.92 23.040 15.36 56.32-7.68 76.8l-61.44 61.44c-10.24 10.24-25.6 17.92-43.52 17.92-12.8 0-25.6-5.12-35.84-10.24l-53.76-43.52c-23.040 12.8-46.080 20.48-69.12 28.16l-10.24 66.56c-5.12 28.16-30.72 51.2-58.88 51.2h-84.48c-30.72 0-53.76-20.48-58.88-51.2l-12.8-69.12c-23.040-7.68-46.080-15.36-66.56-28.16l-56.32 40.96c-10.24 7.68-23.040 10.24-35.84 10.24-15.36 2.56-30.72-5.12-40.96-15.36l-61.44-61.44c-20.48-20.48-23.040-53.76-7.68-76.8l40.96-56.32c-10.24-20.48-20.48-43.52-28.16-66.56l-64-12.8c-28.16-5.12-51.2-30.72-51.2-58.88v-84.48c0-30.72 20.48-53.76 51.2-58.88l69.12-12.8c7.68-23.040 15.36-46.080 28.16-66.56l-40.96-56.32c-17.92-23.040-15.36-56.32 7.68-76.8l61.44-61.44c10.24-10.24 25.6-17.92 43.52-17.92 12.8 0 25.6 5.12 35.84 10.24l56.32 40.96c20.48-10.24 40.96-20.48 64-25.6l7.68-66.56c5.12-28.16 30.72-51.2 58.88-51.2h84.48c30.72 0 53.76 20.48 58.88 51.2l12.8 69.12c23.040 7.68 46.080 15.36 66.56 28.16l56.32-40.96c10.24-7.68 23.040-10.24 35.84-10.24 15.36 0 30.72 5.12 43.52 17.92l61.44 61.44c20.48 20.48 23.040 53.76 7.68 76.8l-43.52 53.76c10.24 20.48 20.48 43.52 28.16 66.56l66.56 10.24c28.16 5.12 51.2 30.72 51.2 58.88v84.48c0 30.72-20.48 56.32-48.64 61.44zM944.64 404.48v0c0-2.56-2.56-5.12-5.12-5.12l-84.48-15.36c-10.24-2.56-20.48-10.24-23.040-20.48-7.68-30.72-20.48-58.88-35.84-84.48-5.12-10.24-5.12-20.48 0-30.72l51.2-71.68c2.56-2.56 0-5.12 0-7.68l-61.44-61.44c-2.56-2.56-2.56-2.56-5.12-2.56 0 0-2.56 0-2.56 0l-71.68 51.2c-7.68 5.12-20.48 7.68-30.72 0-25.6-15.36-56.32-28.16-84.48-35.84-10.24-2.56-17.92-10.24-20.48-23.040l-15.36-84.48c0-2.56-2.56-5.12-5.12-5.12h-84.48c-2.56 0-5.12 2.56-5.12 5.12l-15.36 84.48c-2.56 10.24-10.24 20.48-20.48 23.040-28.16 7.68-56.32 17.92-84.48 33.28 2.56 10.24-2.56 12.8-7.68 12.8s-10.24-2.56-15.36-5.12l-71.68-51.2c0 0-2.56 0-2.56 0s-2.56 0-5.12 2.56l-58.88 58.88c-2.56 2.56-2.56 5.12 0 7.68l51.2 69.12c5.12 7.68 7.68 20.48 0 30.72-15.36 25.6-28.16 56.32-35.84 84.48-2.56 10.24-10.24 17.92-23.040 20.48l-87.040 12.8c-2.56 0-5.12 2.56-5.12 5.12v84.48c0 2.56 2.56 5.12 5.12 5.12l84.48 15.36c10.24 2.56 20.48 10.24 23.040 20.48 7.68 30.72 17.92 58.88 35.84 84.48 5.12 10.24 5.12 20.48-2.56 30.72l-51.2 71.68c-2.56 2.56 0 5.12 0 7.68l61.44 61.44c2.56 2.56 2.56 2.56 5.12 2.56 0 0 2.56 0 2.56 0l69.12-51.2c7.68-5.12 20.48-7.68 30.72 0 25.6 15.36 56.32 28.16 84.48 35.84 10.24 2.56 17.92 10.24 20.48 23.040l15.36 87.040c0 2.56 2.56 5.12 5.12 5.12h84.48c2.56 0 5.12-2.56 5.12-5.12l15.36-84.48c2.56-10.24 10.24-20.48 20.48-23.040 30.72-7.68 58.88-20.48 87.040-35.84 10.24-5.12 20.48-5.12 30.72 0l69.12 51.2c0 0 2.56 0 2.56 0s2.56 0 5.12-2.56l61.44-61.44c2.56-2.56 2.56-5.12 0-7.68l-51.2-71.68c-5.12-7.68-7.68-20.48 0-30.72 15.36-25.6 28.16-56.32 35.84-84.48 2.56-10.24 10.24-17.92 23.040-20.48l84.48-15.36c2.56 0 5.12-2.56 5.12-5.12v-84.48zM512 657.92c-115.2 0-209.92-94.72-209.92-209.92s94.72-209.92 209.92-209.92c115.2 0 209.92 94.72 209.92 209.92s-94.72 209.92-209.92 209.92zM512 291.84c-84.48 0-156.16 69.12-156.16 156.16 0 84.48 69.12 156.16 156.16 156.16 84.48 0 156.16-69.12 156.16-156.16 0-84.48-71.68-156.16-156.16-156.16z" />
<glyph unicode="&#xe910;" glyph-name="Subscribers" d="M929.28 936.96c-7.68 7.68-15.36 10.24-25.6 10.24h-783.36c-10.24 0-20.48-5.12-25.6-10.24-7.68-7.68-12.8-17.92-12.8-28.16v-921.6c0-10.24 5.12-20.48 10.24-25.6 7.68-7.68 15.36-10.24 25.6-10.24h783.36c10.24 0 20.48 5.12 25.6 10.24 7.68 7.68 10.24 15.36 10.24 25.6v921.6c5.12 10.24 0 20.48-7.68 28.16zM156.16 872.96h709.12v-849.92h-314.88v335.36l94.72-81.92c15.36-12.8 38.4-12.8 53.76 2.56 12.8 15.36 12.8 38.4-2.56 53.76l-148.48 130.56c-15.36 12.8-35.84 12.8-48.64 0l-148.48-130.56c-15.36-12.8-17.92-38.4-2.56-53.76 12.8-15.36 38.4-17.92 53.76-2.56v0l81.92 71.68v-325.12h-327.68v849.92zM227.84 724.48h573.44c20.48 0 38.4 17.92 38.4 38.4s-17.92 38.4-38.4 38.4h-573.44c-20.48-2.56-38.4-20.48-38.4-40.96s17.92-35.84 38.4-35.84zM839.68 634.88c0 20.48-17.92 38.4-38.4 38.4h-573.44c-20.48 0-38.4-17.92-38.4-38.4s17.92-38.4 38.4-38.4h573.44c20.48 0 38.4 17.92 38.4 38.4z" />
<glyph unicode="&#xe911;" glyph-name="Todays-Sales" d="M189.44 499.2h58.88v-58.88h-58.88v58.88zM325.12 583.68l25.6-53.76c38.4 17.92 84.48 28.16 133.12 28.16s97.28-10.24 135.68-28.16l23.040 53.76c-46.080 20.48-104.96 33.28-161.28 33.28s-110.080-10.24-156.16-33.28zM952.32 529.92c0-38.4-25.6-71.68-61.44-84.48-15.36 130.56-125.44 222.72-250.88 263.68 5.12 12.8 7.68 23.040 7.68 35.84 0 64-51.2 117.76-117.76 117.76-64 0-117.76-53.76-117.76-117.76 0-5.12 0-12.8 2.56-17.92-40.96-5.12-79.36-15.36-117.76-30.72-20.48 58.88-74.24 97.28-135.68 97.28h-30.72v-215.040c-17.92-25.6-33.28-51.2-43.52-79.36h-76.8v-232.96h104.96c17.92-28.16 43.52-56.32 71.68-79.36v-156.16h176.64v74.24c38.4-7.68 76.8-12.8 117.76-12.8s81.92 5.12 117.76 12.8v-74.24h176.64v156.16c61.44 51.2 107.52 120.32 115.2 199.68 66.56 12.8 117.76 71.68 117.76 143.36h-56.32zM529.92 806.4c30.72 0 58.88-25.6 58.88-58.88 0-7.68-2.56-15.36-5.12-23.040-2.56 0-5.12 0-7.68 2.56v0c-33.28 5.12-69.12 7.68-102.4 7.68 0 5.12-2.56 7.68-2.56 12.8 0 33.28 25.6 58.88 58.88 58.88zM719.36 215.040v-128h-58.88v94.72c-23.040-5.12-81.92-33.28-176.64-33.28s-151.040 25.6-176.64 33.28v-92.16h-58.88v128c-7.68 5.12-56.32 35.84-89.6 94.72l-7.68 15.36h-79.36v117.76h61.44l5.12 23.040c15.36 56.32 48.64 89.6 51.2 94.72v166.4c30.72-10.24 53.76-38.4 58.88-74.24l5.12-40.96c12.8 5.12 79.36 48.64 186.88 61.44 20.48-25.6 53.76-43.52 89.6-43.52 28.16 0 56.32 10.24 76.8 28.16 135.68-38.4 230.4-135.68 230.4-245.76-2.56-128-115.2-194.56-117.76-199.68z" />
<glyph unicode="&#xe912;" glyph-name="User-category" d="M81.92 302.080c7.68 56.32 33.28 107.52 71.68 145.92 46.080 46.080 110.080 74.24 181.76 74.24 43.52 0 81.92-10.24 117.76-28.16l25.6 58.88c0 2.56 2.56 2.56 2.56 5.12-40.96 20.48-84.48 33.28-133.12 33.28 43.52 2.56 84.48 20.48 115.2 51.2 33.28 33.28 53.76 79.36 53.76 128s-17.92 92.16-53.76 128c-33.28 33.28-79.36 53.76-128 53.76s-92.16-17.92-128-53.76c-33.28-33.28-53.76-79.36-53.76-128s17.92-92.16 53.76-128c30.72-30.72 71.68-48.64 115.2-51.2-84.48-2.56-161.28-38.4-217.6-94.72-58.88-58.88-94.72-140.8-94.72-230.4 0-10.24 2.56-17.92 10.24-23.040 5.12-5.12 15.36-10.24 23.040-10.24h442.88l-38.4 69.12h-366.080zM256 693.76c-20.48 20.48-33.28 48.64-33.28 79.36s12.8 58.88 33.28 79.36c20.48 20.48 48.64 30.72 79.36 30.72s58.88-12.8 79.36-33.28c20.48-17.92 33.28-46.080 33.28-76.8s-12.8-58.88-33.28-79.36c-20.48-20.48-48.64-33.28-79.36-33.28s-58.88 12.8-79.36 33.28zM642.56 465.92c-10.24 0-20.48-2.56-30.72-7.68-20.48-10.24-30.72-33.28-30.72-53.76 0-10.24 2.56-20.48 7.68-30.72 10.24-20.48 33.28-30.72 53.76-30.72 10.24 0 20.48 2.56 30.72 7.68v0c20.48 10.24 30.72 33.28 30.72 53.76 0 10.24-2.56 20.48-7.68 30.72-10.24 17.92-30.72 30.72-53.76 30.72zM983.040 174.080l-202.24 355.84c-10.24 20.48-30.72 33.28-53.76 35.84l-133.12 17.92c-2.56 0-7.68 0-10.24 0-28.16 0-56.32-17.92-66.56-46.080l-51.2-125.44c-2.56-10.24-5.12-17.92-5.12-28.16 0-12.8 2.56-25.6 10.24-35.84l202.24-355.84c12.8-23.040 38.4-35.84 64-35.84 12.8 0 25.6 2.56 35.84 10.24l184.32 107.52c23.040 12.8 35.84 38.4 35.84 64 0 12.8-5.12 25.6-10.24 35.84zM926.72 125.44l-184.32-107.52c-2.56-2.56-5.12-2.56-7.68-2.56-5.12 0-10.24 2.56-12.8 7.68l-202.24 355.84c0 2.56-2.56 5.12-2.56 7.68v5.12l51.2 125.44c2.56 5.12 7.68 7.68 12.8 7.68h2.56l133.12-17.92c5.12 0 7.68-2.56 10.24-7.68l202.24-355.84c2.56-2.56 2.56-5.12 2.56-7.68s-2.56-7.68-5.12-10.24z" />
<glyph unicode="&#xe913;" glyph-name="User-List" d="M967.68 545.28h-417.28c10.24-7.68 20.48-17.92 30.72-28.16s17.92-20.48 28.16-30.72h343.040v-483.84h-430.080v207.36h-58.88v-222.72c0-25.6 20.48-43.52 43.52-43.52h460.8c25.6 0 43.52 20.48 43.52 43.52v512c0 25.6-17.92 46.080-43.52 46.080zM714.24 353.28h176.64c15.36 0 30.72 12.8 30.72 30.72s-12.8 28.16-30.72 28.16h-176.64c-15.36 0-30.72-12.8-30.72-28.16s12.8-30.72 30.72-30.72zM714.24 217.6h176.64c15.36 0 30.72 12.8 30.72 30.72s-12.8 28.16-30.72 28.16h-176.64c-15.36 0-30.72-12.8-30.72-28.16s12.8-30.72 30.72-30.72zM581.12 112.64c0-15.36 12.8-30.72 28.16-30.72h279.040c15.36 0 30.72 12.8 30.72 30.72s-12.8 28.16-28.16 28.16h-279.040c-17.92 0-30.72-12.8-30.72-28.16zM650.24 245.76c5.12 5.12 10.24 15.36 10.24 23.040 0 89.6-35.84 171.52-94.72 230.4-56.32 56.32-133.12 92.16-217.6 94.72 43.52 2.56 84.48 20.48 115.2 51.2 33.28 33.28 53.76 79.36 53.76 128s-17.92 92.16-53.76 128c-33.28 33.28-79.36 53.76-128 53.76s-92.16-17.92-128-53.76c-33.28-33.28-53.76-79.36-53.76-128s17.92-92.16 53.76-128c30.72-30.72 71.68-48.64 115.2-51.2-84.48-2.56-161.28-38.4-217.6-94.72-58.88-58.88-94.72-140.8-94.72-230.4 0-10.24 2.56-17.92 10.24-23.040 5.12-5.12 15.36-10.24 23.040-10.24h581.12c10.24 0 17.92 2.56 25.6 10.24zM256 693.76c-20.48 20.48-33.28 48.64-33.28 79.36s12.8 58.88 33.28 79.36c20.48 20.48 48.64 30.72 79.36 30.72s58.88-12.8 79.36-33.28c20.48-17.92 33.28-46.080 33.28-76.8s-12.8-58.88-33.28-79.36c-20.48-20.48-48.64-33.28-79.36-33.28s-58.88 12.8-79.36 33.28zM81.92 302.080c7.68 56.32 33.28 107.52 71.68 145.92 46.080 46.080 110.080 74.24 181.76 74.24s135.68-28.16 181.76-74.24c38.4-38.4 64-89.6 71.68-145.92h-506.88z" />
<glyph unicode="&#xe914;" glyph-name="Users" d="M719.36 532.48c46.080 0 87.040 20.48 115.2 48.64 30.72 30.72 48.64 71.68 48.64 117.76s-17.92 87.040-48.64 117.76c-28.16 30.72-71.68 48.64-115.2 48.64-46.080 0-87.040-20.48-115.2-48.64-30.72-30.72-48.64-71.68-48.64-117.76s17.92-87.040 48.64-117.76c28.16-30.72 69.12-48.64 115.2-48.64zM660.48 765.44c15.36 15.36 38.4 25.6 61.44 25.6s43.52-10.24 61.44-25.6c15.36-15.36 25.6-38.4 25.6-64s-10.24-48.64-25.6-64c-15.36-15.36-38.4-25.6-61.44-25.6s-43.52 10.24-61.44 25.6c-15.36 15.36-25.6 38.4-25.6 64-2.56 23.040 7.68 46.080 25.6 64zM998.4 230.4c0 79.36-30.72 151.040-81.92 202.24s-120.32 84.48-197.12 84.48c-76.8 0-145.92-33.28-197.12-84.48-5.12-5.12-10.24-10.24-15.36-17.92 23.040-12.8 43.52-28.16 61.44-46.080 2.56 2.56 5.12 7.68 7.68 10.24 35.84 38.4 87.040 61.44 140.8 61.44 56.32 0 104.96-23.040 140.8-61.44 35.84-35.84 56.32-84.48 58.88-140.8h-258.56c10.24-25.6 15.36-51.2 20.48-76.8h320v69.12zM545.28 325.12c-53.76 56.32-130.56 92.16-215.040 92.16v0c-84.48 0-161.28-35.84-215.040-92.16-56.32-56.32-89.6-135.68-89.6-222.72v-74.24h609.28v74.24c0 87.040-33.28 166.4-89.6 222.72zM550.4 112.64h-440.32c2.56 58.88 25.6 112.64 64 153.6 40.96 40.96 94.72 66.56 156.16 66.56s115.2-25.6 156.16-66.56c38.4-40.96 61.44-94.72 64-153.6zM330.24 432.64c48.64 0 94.72 20.48 128 53.76s51.2 79.36 51.2 130.56c0 51.2-20.48 97.28-51.2 130.56-33.28 33.28-76.8 53.76-128 53.76-48.64 0-94.72-20.48-128-53.76s-51.2-79.36-51.2-130.56c0-51.2 20.48-97.28 51.2-130.56 33.28-33.28 79.36-53.76 128-53.76zM263.68 688.64c17.92 17.92 40.96 28.16 66.56 28.16s48.64-10.24 66.56-28.16c17.92-17.92 28.16-43.52 28.16-71.68s-10.24-53.76-28.16-71.68c-17.92-17.92-40.96-28.16-66.56-28.16s-48.64 10.24-66.56 28.16c-17.92 17.92-28.16 43.52-28.16 71.68s10.24 53.76 28.16 71.68z" />
<glyph unicode="&#xe915;" glyph-name="Views-Today" d="M975.36 465.92c-10.24 10.24-207.36 268.8-463.36 268.8s-453.12-258.56-463.36-268.8c-7.68-10.24-7.68-25.6 0-35.84 10.24-10.24 207.36-268.8 463.36-268.8s453.12 258.56 463.36 268.8c7.68 10.24 7.68 25.6 0 35.84zM512 220.16c-186.88 0-350.72 171.52-399.36 227.84 48.64 56.32 209.92 227.84 399.36 227.84 186.88 0 350.72-171.52 399.36-227.84-48.64-56.32-212.48-227.84-399.36-227.84zM512 627.2c-102.4 0-184.32-79.36-184.32-179.2s81.92-179.2 184.32-179.2c102.4 0 184.32 79.36 184.32 179.2s-81.92 179.2-184.32 179.2zM512 330.24c-69.12 0-122.88 53.76-122.88 117.76s56.32 117.76 122.88 117.76c69.12 0 122.88-53.76 122.88-117.76s-53.76-117.76-122.88-117.76z" />
<glyph unicode="&#xe916;" glyph-name="Back" d="M995.84 501.76h-762.88l192 192-74.24 74.24-322.56-320 322.56-322.56 74.24 74.24-192 192h760.32v110.080z" />
<glyph unicode="&#xe917;" glyph-name="Logout" d="M926.72 476.16l-192 192c-15.36 15.36-43.52 15.36-58.88 0s-15.36-43.52 0-58.88l122.88-122.88h-506.88c-23.040 0-40.96-17.92-40.96-40.96s17.92-40.96 40.96-40.96h506.88l-122.88-122.88c-15.36-15.36-15.36-43.52 0-58.88 7.68-7.68 17.92-12.8 28.16-12.8s20.48 5.12 28.16 12.8l192 192c20.48 20.48 20.48 46.080 2.56 61.44zM483.84 74.24h-317.44v747.52h317.44c23.040 0 40.96 17.92 40.96 40.96s-17.92 40.96-40.96 40.96h-358.4c-23.040 0-40.96-17.92-40.96-40.96v-826.88c0-23.040 17.92-40.96 40.96-40.96h358.4c23.040 0 40.96 17.92 40.96 40.96 0 20.48-17.92 38.4-40.96 38.4z" />
<glyph unicode="&#xe918;" glyph-name="Password" d="M870.4 765.44c-84.48 84.48-197.12 130.56-317.44 130.56-122.88 0-235.52-48.64-320-135.68-10.24-10.24-10.24-25.6 0-33.28 10.24-10.24 25.6-10.24 33.28 0 76.8 76.8 176.64 120.32 286.72 120.32 220.16 0 399.36-179.2 399.36-399.36s-179.2-399.36-399.36-399.36c-220.16 0-399.36 179.2-399.36 399.36v5.12l40.96-40.96c5.12-5.12 10.24-7.68 17.92-7.68s12.8 2.56 17.92 7.68c10.24 10.24 10.24 25.6 0 33.28l-81.92 81.92c-10.24 10.24-25.6 10.24-33.28 0l-84.48-79.36c-10.24-10.24-10.24-25.6 0-33.28 5.12-5.12 10.24-7.68 17.92-7.68s12.8 2.56 17.92 7.68l40.96 40.96v-7.68c0-120.32 46.080-232.96 130.56-317.44s197.12-130.56 317.44-130.56c120.32 0 232.96 46.080 317.44 130.56 79.36 79.36 122.88 181.76 130.56 291.84v51.2c-10.24 110.080-56.32 212.48-133.12 291.84zM552.96 709.12c-79.36 0-140.8-64-140.8-143.36v-69.12h-43.52c-12.8 0-23.040-10.24-23.040-23.040v-240.64c0-12.8 10.24-23.040 23.040-23.040h373.76c12.8 0 23.040 10.24 23.040 23.040v240.64c0 12.8-10.24 23.040-23.040 23.040h-43.52v69.12c-2.56 79.36-66.56 143.36-145.92 143.36zM552.96 660.48c51.2 0 94.72-40.96 94.72-94.72v-69.12h-186.88v69.12c-2.56 51.2 40.96 94.72 92.16 94.72zM714.24 450.56v-192h-322.56v192h322.56z" />
<glyph unicode="&#xe919;" glyph-name="Profile" d="M757.76 335.36c-35.84 17.92-94.72 48.64-107.52 58.88 58.88 71.68 94.72 158.72 94.72 230.4 0 51.2 0 110.080-28.16 168.96-25.6 51.2-81.92 107.52-204.8 107.52s-179.2-58.88-204.8-107.52c-28.16-53.76-28.16-117.76-28.16-168.96 0-71.68 35.84-156.16 94.72-230.4-15.36-12.8-71.68-43.52-107.52-58.88-69.12-35.84-112.64-58.88-143.36-84.48-58.88-58.88-64-158.72-64-176.64s5.12-40.96 23.040-53.76c12.8-15.36 35.84-23.040 53.76-23.040h755.2c17.92 0 40.96 10.24 53.76 23.040 12.8 15.36 23.040 35.84 23.040 53.76s-5.12 120.32-64 176.64c-28.16 23.040-74.24 46.080-145.92 84.48zM133.12 69.12c0 30.72 10.24 94.72 40.96 125.44 17.92 17.92 64 40.96 122.88 71.68 69.12 35.84 107.52 56.32 125.44 71.68l51.2 48.64-43.52 53.76c-51.2 58.88-79.36 125.44-79.36 184.32 0 43.52 0 92.16 17.92 133.12 23.040 43.52 66.56 66.56 138.24 66.56 69.12 0 112.64-23.040 138.24-66.56 17.92-38.4 17.92-89.6 17.92-133.12 0-53.76-28.16-120.32-79.36-184.32l-43.52-53.76 51.2-48.64c17.92-17.92 56.32-38.4 125.44-71.68 58.88-28.16 104.96-53.76 122.88-71.68 30.72-30.72 40.96-94.72 40.96-125.44h-747.52z" />
<glyph unicode="&#xe91a;" glyph-name="Profile-User" d="M967.68 448c0 250.88-204.8 455.68-455.68 455.68s-455.68-204.8-455.68-455.68c0-133.12 56.32-253.44 148.48-335.36v0l15.36-12.8c0 0 2.56-2.56 2.56-2.56 7.68-7.68 15.36-12.8 25.6-17.92 2.56-2.56 5.12-5.12 7.68-5.12 7.68-5.12 17.92-12.8 28.16-17.92 2.56 0 5.12-2.56 5.12-2.56 10.24-5.12 20.48-10.24 30.72-15.36 0 0 2.56 0 2.56 0 35.84-15.36 71.68-28.16 110.080-35.84 0 0 2.56 0 2.56 0 12.8-2.56 23.040-2.56 35.84-5.12 2.56 0 2.56 0 5.12 0 12.8 0 25.6-2.56 38.4-2.56s25.6 0 35.84 2.56c2.56 0 2.56 0 5.12 0 12.8 0 23.040 2.56 35.84 5.12 0 0 2.56 0 2.56 0 38.4 7.68 74.24 17.92 110.080 33.28 0 0 2.56 0 2.56 2.56 10.24 5.12 20.48 10.24 30.72 15.36 2.56 2.56 5.12 2.56 7.68 5.12 7.68 5.12 17.92 10.24 25.6 15.36 2.56 2.56 5.12 5.12 10.24 7.68 7.68 5.12 15.36 10.24 20.48 15.36 2.56 0 2.56 2.56 5.12 2.56l15.36 12.8c89.6 81.92 145.92 202.24 145.92 335.36zM793.6 130.56c-5.12 2.56-10.24 5.12-15.36 7.68l-140.8 69.12c-12.8 5.12-20.48 17.92-20.48 33.28v48.64c2.56 5.12 7.68 7.68 10.24 12.8 17.92 25.6 33.28 53.76 43.52 84.48 20.48 10.24 35.84 30.72 35.84 53.76v58.88c0 15.36-5.12 28.16-15.36 38.4v76.8c0 7.68 5.12 56.32-30.72 97.28-30.72 43.52-81.92 58.88-148.48 58.88s-117.76-15.36-148.48-51.2c-33.28-40.96-30.72-89.6-30.72-97.28v-76.8c-10.24-10.24-15.36-25.6-15.36-38.4v-58.88c0-17.92 7.68-35.84 23.040-46.080 12.8-53.76 40.96-92.16 51.2-104.96v-48.64c0-12.8-7.68-25.6-20.48-33.28l-130.56-74.24c-5.12-2.56-7.68-5.12-12.8-7.68-87.040 76.8-140.8 189.44-140.8 314.88 0 232.96 189.44 422.4 422.4 422.4s424.96-189.44 424.96-422.4c0-125.44-53.76-238.080-140.8-317.44z" />
</font>
</defs>
</svg>
